<svg width="40" height="40" fill="none" xmlns="http://www.w3.org/2000/svg"><path d="M5 34.375V10h30v11.875h1.25V5.625a1.875 1.875 0 00-1.875-1.875H5.625A1.875 1.875 0 003.75 5.625v28.75a1.875 1.875 0 001.875 1.875H26.25V35H5.625A.625.625 0 015 34.375zM5.625 5h28.75a.625.625 0 01.625.625V8.75H5V5.625A.625.625 0 015.625 5z" fill="#333"/><path d="M6.25 6.25H7.5V7.5H6.25V6.25zm2.5 0H10V7.5H8.75V6.25zm2.5 0h1.25V7.5h-1.25V6.25zm-10 13.125H2.5v12.5H1.25v-12.5zM14.375 20v-5h2.5v-1.25h-6.25V15h2.5v5h1.25z" fill="#333"/><path d="M20 12.5h-1.25v3.75h-2.5a.624.624 0 00-.625.625V20h1.25v-2.5h1.875V20H20v-7.5zM11.875 20v-3.125a.624.624 0 00-.625-.625h-2.5V12.5H7.5V20h1.25v-2.5h1.875V20h1.25zm23.75 3.125a1.86 1.86 0 00-.92.25 1.857 1.857 0 00-2.277-.738A1.843 1.843 0 0030 21.365V20a1.875 1.875 0 00-3.75 0v5.864l-.657.328a3.335 3.335 0 00-.358 5.757l1.708 1.14a1.25 1.25 0 01.557 1.04v4.621h1.25v-4.625a2.495 2.495 0 00-1.113-2.08l-1.709-1.139a2.085 2.085 0 01.224-3.6l.098-.045v1.489h1.25V20a.625.625 0 111.25 0v5.625H30v-2.5a.625.625 0 111.25 0v3.125h1.25v-1.875a.625.625 0 111.25 0v2.5H35V25a.625.625 0 111.25 0v2.83a11.268 11.268 0 01-1.188 5.016.624.624 0 00-.062.279v5.625h1.25v-5.48a12.529 12.529 0 001.25-5.438V25a1.875 1.875 0 00-1.875-1.875z" fill="#333"/><path d="M28.125 16.875A3.129 3.129 0 0131.25 20h1.25a4.375 4.375 0 10-8.164 2.188l1.082-.625a3.125 3.125 0 012.707-4.688zm-17.5 6.25A.624.624 0 0010 22.5H7.5a.625.625 0 00-.625.625v2.5a.625.625 0 00.625.625H10a.624.624 0 00.625-.625v-2.5zM9.375 25h-1.25v-1.25h1.25V25zm2.5-2.5h1.25v1.25h-1.25V22.5zm2.5 0H20v1.25h-5.625V22.5zm-2.5 2.5h1.25v1.25h-1.25V25zm2.5 0H20v1.25h-5.625V25zM10 28.125H7.5a.625.625 0 00-.625.625v2.5a.625.625 0 00.625.625H10a.624.624 0 00.625-.625v-2.5a.624.624 0 00-.625-.625zm-.625 2.5h-1.25v-1.25h1.25v1.25zm2.5-2.5h1.25v1.25h-1.25v-1.25zm2.5 0H20v1.25h-5.625v-1.25zm-2.5 2.5h1.25v1.25h-1.25v-1.25zm2.5 0H20v1.25h-5.625v-1.25zm23.125-25h1.25v10H37.5v-10z" fill="#333"/></svg>