<svg width="40" height="40" fill="none" xmlns="http://www.w3.org/2000/svg"><path d="M29.543 33.62l-1.825 3.597 1.114.566 1.68-3.312 7.113-1.117a.623.623 0 00.52-.716l-1.131-7.11 1.337-1.335-.883-.886-1.562 1.563a.625.625 0 00-.176.54l1.083 6.806L30 33.286a.626.626 0 00-.457.334zM3.726 11.152l-.538-3.368L10 6.714a.625.625 0 00.46-.334l2.14-4.222-1.115-.566-2 3.937-7.11 1.117a.625.625 0 00-.52.716l.634 3.986 1.237-.196zm-1.038 1.452l1.235-.196.199 1.25-1.235.196-.199-1.25z" fill="#333"/><path d="M34.343 15.34l.938-5.897a.625.625 0 00-.521-.716l-5.899-.926-2.702-5.326a.626.626 0 00-.841-.274L20 4.922l-5.318-2.72a.625.625 0 00-.841.273L11.139 7.8l-5.9.927a.625.625 0 00-.52.715l.938 5.897-4.225 4.219a.624.624 0 000 .884l4.224 4.219-.937 5.896a.625.625 0 00.52.716l5.9.926 2.702 5.326a.626.626 0 00.841.274L20 35.078l5.317 2.72a.624.624 0 00.842-.273l2.702-5.325 5.9-.927a.625.625 0 00.52-.715l-.938-5.897 4.224-4.219a.626.626 0 000-.884l-4.224-4.219zM33.233 24a.625.625 0 00-.175.54l.89 5.593-5.597.88a.625.625 0 00-.46.334l-2.562 5.051-5.044-2.581a.625.625 0 00-.57 0l-5.044 2.581-2.562-5.051a.624.624 0 00-.46-.335l-5.597-.877.89-5.593a.625.625 0 00-.176-.54L2.76 20l4.007-4a.626.626 0 00.176-.54l-.89-5.595 5.597-.88a.625.625 0 00.46-.334L14.67 3.6l5.044 2.581a.625.625 0 00.57 0L25.329 3.6l2.562 5.051a.626.626 0 00.46.335l5.597.879-.89 5.592a.626.626 0 00.176.541L37.24 20l-4.007 4z" fill="#333"/><path d="M11.875 22.5h1.25v1.25h-1.25V22.5z" fill="#333"/><path d="M28.125 15H22.5v-3.125a3.129 3.129 0 00-3.125-3.125.625.625 0 00-.606.473l-1.519 6.08a1.25 1.25 0 01-1.214.947h-.411v-.625A.624.624 0 0015 15h-5a.625.625 0 00-.625.625v10a.625.625 0 00.625.625h5a.624.624 0 00.625-.625V25h1.73a12.532 12.532 0 005.44 1.25h2.83a1.875 1.875 0 001.875-1.875 1.854 1.854 0 00-.25-.92 1.857 1.857 0 00.738-2.277 1.85 1.85 0 001.137-2.722 1.871 1.871 0 00-1-3.456zm-13.75 10h-3.75v-8.75h3.75V25zM27.5 20h-3.125v1.25h1.875a.624.624 0 110 1.25h-2.5v1.25h1.875a.624.624 0 110 1.25h-2.83a11.264 11.264 0 01-5.016-1.188.624.624 0 00-.279-.062h-1.875V17.5h.411a2.5 2.5 0 002.426-1.894l1.386-5.543a1.874 1.874 0 011.402 1.812v3.75a.624.624 0 00.625.625h6.25a.624.624 0 110 1.25H25v1.25h2.5a.624.624 0 110 1.25zm-10 8.125h5v1.25h-5v-1.25zm-1.875 2.5h8.75v1.25h-8.75v-1.25z" fill="#333"/></svg>