<svg width="40" height="40" fill="none" xmlns="http://www.w3.org/2000/svg"><path d="M33.594 30.068a2.24 2.24 0 00-1-.164l-.73-4.381A.625.625 0 0031.25 25h-2.813l-.937-1.25h5.625a1.87 1.87 0 00.599-3.643 11.25 11.25 0 00-9.349-10.563V8.75A1.885 1.885 0 0022.5 6.875a1.875 1.875 0 00-1.875 1.875v.794a11.25 11.25 0 00-9.349 10.563 1.87 1.87 0 00.599 3.643H17.5L16.562 25H13.75a.625.625 0 00-.616.523l-.33 1.977H11.25a.624.624 0 00-.625-.625h-8.75v1.25H10v7.5H1.875v1.25h8.75a.625.625 0 00.625-.625v-.238l4.666 1.937a10.82 10.82 0 007.954.088l9.654-3.681a2.272 2.272 0 001.277-1.217 2.314 2.314 0 00.037-1.795 2.278 2.278 0 00-1.244-1.276zM21.875 8.75a.625.625 0 01.867-.575.61.61 0 01.203.141.598.598 0 01.18.434v.657c-.208-.012-.414-.032-.625-.032-.211 0-.417.02-.625.032V8.75zm.625 1.875A10.005 10.005 0 0132.468 20H12.531a10.004 10.004 0 019.969-9.375zm-11.25 11.25a.624.624 0 01.625-.625h21.25a.624.624 0 110 1.25h-21.25a.624.624 0 01-.625-.625zm7.813 1.875h6.875l.937 1.25h-8.75l.938-1.25zm11.658 2.5l.668 4.014-3.6 1.528c.012-.076.02-.153.023-.23a2.188 2.188 0 00-2.187-2.187h-4.848a3.18 3.18 0 01-1.413-.333 14.687 14.687 0 00-5.302-1.483l.217-1.309h16.442zm2.937 6.384a1.03 1.03 0 01-.578.554l-9.655 3.681a9.563 9.563 0 01-7.033-.076l-5.142-2.136V28.75h1.584a13.42 13.42 0 015.972 1.41 4.43 4.43 0 001.97.465h4.849a.937.937 0 01.207 1.85c-.082.008-.163.025-.246.025h-7.461v1.25h7.5c.012 0 .024-.004.038-.004a3.861 3.861 0 001.442-.305l5.225-2.219a.99.99 0 01.78 0 1.032 1.032 0 01.563.582 1.068 1.068 0 01-.016.83h.001z" fill="#333"/><path d="M7.5 33.125h1.25v1.25H7.5v-1.25zm8.077-15.389a7.484 7.484 0 016.923-4.611v-1.25a8.733 8.733 0 00-8.077 5.378l1.154.483zm6.298-14.611h1.25v2.5h-1.25v-2.5zm-5 5h2.5v1.25h-2.5v-1.25zm8.75 0h2.5v1.25h-2.5v-1.25zm-1.587-1.797l1.767-1.768.884.884-1.767 1.768-.884-.884zm-5.731-.883l.883-.884 1.768 1.768-.884.884-1.767-1.768z" fill="#333"/></svg>