<svg width="40" height="40" fill="none" xmlns="http://www.w3.org/2000/svg"><g clip-path="url(#clip0)"><path d="M36.805 26.636a7.062 7.062 0 01-6.284.9.625.625 0 00-.572.079l-2.813 1.994.724 1.02 2.552-1.813a8.353 8.353 0 007.09-1.145 8.867 8.867 0 001.045-.827l-.848-.918a7.55 7.55 0 01-.894.71z" fill="#333"/><path d="M30.511 17.308a5.683 5.683 0 00-2.588 5.42L20 27.807l-7.924-5.076a5.658 5.658 0 00-2.591-5.419 5.976 5.976 0 00-4.075-1.016 4.627 4.627 0 00-3.986 5.909 5.971 5.971 0 002.47 3.395 5.656 5.656 0 006 .37l6.15 4.367-5.853 3.754a2.45 2.45 0 00-.022 4.122 2.452 2.452 0 002.761-.056L20 33.145l7.07 5.017a2.456 2.456 0 102.742-4.071l-5.86-3.75 6.155-4.369a5.656 5.656 0 006-.37c2.57-1.733 3.408-5.004 1.869-7.292-1.54-2.287-4.89-2.735-7.465-1zM12.206 37.141a1.233 1.233 0 01-1.695-.31 1.201 1.201 0 01.35-1.687l6.281-4.028 1.775 1.259-6.71 4.766zm17.463-1.227a1.206 1.206 0 01-1.879 1.228L10.266 24.704a.625.625 0 00-.73.005 4.332 4.332 0 01-4.944-.145 4.726 4.726 0 01-1.96-2.681 3.375 3.375 0 012.937-4.35 4.727 4.727 0 013.22.813 4.331 4.331 0 011.984 4.529.625.625 0 00.269.68l18.096 11.588a1.195 1.195 0 01.53.77zm5.737-11.352a4.332 4.332 0 01-4.944.145.625.625 0 00-.73-.005l-6.915 4.909-1.657-1.063 7.796-5a.625.625 0 00.269-.678 4.353 4.353 0 011.986-4.53c2-1.348 4.572-1.05 5.727.662 1.156 1.712.468 4.212-1.532 5.56zM8.08 2.396l-.692-1.042a8.125 8.125 0 00-3.174 9.48l1.179-.418a6.875 6.875 0 012.687-8.02zM6.719 12.668a6.954 6.954 0 01-.797-1.105l-1.081.624c.27.466.585.903.94 1.307l.938-.826z" fill="#333"/><path d="M26.863 22.625l1.779-8.896A5.625 5.625 0 0028.125 2.5a5.555 5.555 0 00-3.48 1.21 5.615 5.615 0 00-9.29 0 5.555 5.555 0 00-3.48-1.21 5.625 5.625 0 00-.517 11.226l1.78 8.899 1.225-.245-.35-1.755h11.975l-.35 1.75 1.224.25zm-3.017-3.25l.523-3.661-1.238-.178-.548 3.839h-1.958V12.5h-1.25v6.875h-1.958l-.548-3.839-1.238.178.523 3.661h-2.392L12.488 13a.625.625 0 00-.613-.5 4.375 4.375 0 111.732-8.394 4.332 4.332 0 011.445 1.019.625.625 0 001.016-.156 4.367 4.367 0 017.864 0 .626.626 0 001.016.156 4.332 4.332 0 013.177-1.375 4.375 4.375 0 010 8.75.625.625 0 00-.613.5l-1.274 6.375h-2.392z" fill="#333"/><path d="M210.592-21.656l12-75.472a7.998 7.998 0 00-6.664-9.16l-75.504-11.864-34.584-68.168a8.006 8.006 0 00-4.656-4 8.096 8.096 0 00-6.12.488L27-154.992l-68.064-34.832a8 8 0 00-10.776 3.504l-34.584 68.16-75.512 11.864a7.99 7.99 0 00-5.227 3.2 8.002 8.002 0 00-1.429 5.96l12 75.472-54.072 54a7.994 7.994 0 00-2.35 5.664 7.987 7.987 0 002.35 5.664l54.064 53.992-12 75.472a7.998 7.998 0 006.664 9.16l75.504 11.864 34.592 68.168a7.998 7.998 0 004.656 4c.8.254 1.633.384 2.472.384a8.071 8.071 0 003.648-.872L27 230.992l68.064 34.832a8 8 0 0010.776-3.504l34.584-68.16 75.512-11.864a8.006 8.006 0 005.227-3.2 8.002 8.002 0 001.429-5.96l-12-75.472 54.072-54a7.993 7.993 0 002.35-5.664 7.987 7.987 0 00-2.35-5.664l-54.072-53.992zM196.392 89.2a8.003 8.003 0 00-2.248 6.92l11.384 71.584-71.632 11.256a8.004 8.004 0 00-5.888 4.28l-32.8 64.656-64.56-33.04a8.006 8.006 0 00-7.296 0l-64.56 33.04-32.8-64.656a8.001 8.001 0 00-5.896-4.28l-71.632-11.232 11.392-71.584a7.997 7.997 0 00-2.248-6.92L-193.68 38l51.288-51.2a8.002 8.002 0 002.248-6.92l-11.384-71.608 71.632-11.256a8 8 0 005.888-4.28l32.8-64.656 64.56 33.04a7.993 7.993 0 007.296 0l64.56-33.04 32.8 64.656a8.002 8.002 0 005.896 4.28l71.632 11.256-11.392 71.584a7.997 7.997 0 002.248 6.92L247.68 38l-51.288 51.2z" fill="#000"/><path d="M131-26H59v-40a40.048 40.048 0 00-40-40 8.001 8.001 0 00-7.76 6.056L-8.2-22.12A16 16 0 01-23.736-10H-29v-8a8 8 0 00-8-8h-64a8 8 0 00-8 8v128a8 8 0 008 8h64a8.001 8.001 0 008-8v-8h22.136a160.393 160.393 0 0069.64 16H99c6.365 0 12.47-2.529 16.971-7.029A24.005 24.005 0 00123 94a23.745 23.745 0 00-3.2-11.768 23.774 23.774 0 009.448-29.16 23.69 23.69 0 0014.552-34.84 23.956 23.956 0 0010.264-26.938A23.953 23.953 0 00131-26zM-45 102h-48V-10h48v112zm168-64H83v16h24a8 8 0 110 16H75v16h24a8 8 0 110 16H62.776a144.188 144.188 0 01-64.2-15.2A8 8 0 00-5 86h-24V6h5.264A32 32 0 007.312-18.24L25.056-89.2A24 24 0 0143-66v48a8 8 0 008 8h80a8 8 0 110 16H91v16h32a8 8 0 110 16z" fill="#000"/></g><defs><clipPath id="clip0"><path fill="#fff" d="M0 0h40v40H0z"/></clipPath></defs></svg>