<svg width="22" height="17" fill="none" xmlns="http://www.w3.org/2000/svg"><path d="M21.41 12.948l-4.92-4.921a5.725 5.725 0 00-1.186-6.352 5.71 5.71 0 00-8.081 0 5.722 5.722 0 000 8.083 5.714 5.714 0 006.436 1.15l4.895 4.896c.789.79 2.067.79 2.856 0a2.022 2.022 0 000-2.856zM8.135 8.846a4.432 4.432 0 010-6.26 4.421 4.421 0 016.257 0 4.432 4.432 0 010 6.26 4.421 4.421 0 01-6.257 0zm12.363 6.046a.73.73 0 01-1.033 0l-4.676-4.677c.384-.303.727-.65 1.024-1.041l4.685 4.685a.731.731 0 010 1.034zM.645 7.724h2.748a.645.645 0 000-1.29H.645a.645.645 0 000 1.29zm0 2.75h3.779a.645.645 0 000-1.29H.644a.645.645 0 000 1.29zm0 2.75h6.527a.645.645 0 000-1.29H.645a.645.645 0 000 1.29zm14.085 1.461H.646a.645.645 0 000 1.289H14.73a.645.645 0 100-1.29z" fill="#333"/></svg>