<svg width="24" height="22" fill="none" xmlns="http://www.w3.org/2000/svg"><path d="M15.494 1.304A1.762 1.762 0 0012.271.88L12 1.347 11.73.88A1.762 1.762 0 009.325.235a1.762 1.762 0 00-.644 2.404l1.286 2.228-4.747 8.224H1.76A1.761 1.761 0 000 14.85c0 .97.79 1.76 1.76 1.76h13.362l-2.032-3.52H9.284l6.034-10.45c.235-.407.298-.881.176-1.335z" fill="#fff"/><path d="M22.24 13.09h-3.46l-3.936-6.815-2.031 3.52 6.11 10.58a1.766 1.766 0 001.527.88 1.761 1.761 0 001.521-2.64l-1.16-2.005h1.43c.97 0 1.759-.79 1.759-1.76s-.79-1.76-1.76-1.76zM2.376 18.017l-.346.6a1.761 1.761 0 001.521 2.639 1.76 1.76 0 001.527-.88l1.362-2.359H2.376z" fill="#fff"/></svg>