<svg width="22" height="24" fill="none" xmlns="http://www.w3.org/2000/svg"><path d="M20.494 10.29L2.947.258A1.966 1.966 0 001.971 0h-.02a1.981 1.981 0 00-.302.028L1.61.033v.001A1.964 1.964 0 000 1.97v20.06a1.97 1.97 0 001.611 1.936c.011.003.023.004.034.005a1.806 1.806 0 00.303.028l.023.001c.337 0 .673-.086.976-.259l17.547-10.03a1.97 1.97 0 00.992-1.71v-.002a1.97 1.97 0 00-.992-1.71zm-6.94-1.993l-1.744 2.289-4.439-5.824 6.184 3.535zm6.09 3.925L7.37 19.238l7.684-10.08 4.588 2.622a.256.256 0 010 .444z" fill="#fff"/></svg>