<svg width="25" height="25" fill="none" xmlns="http://www.w3.org/2000/svg"><g opacity=".5" clip-path="url(#clip0)"><path d="M23.678 8.66a4.109 4.109 0 00-2.497-3.87 3.312 3.312 0 00-2.833-2.762 2.304 2.304 0 00-1.99-2.06 2.275 2.275 0 00-1.581.395 2.457 2.457 0 00-1.357-.412 2.485 2.485 0 00-2.453 2.11c-.045.01-.087.022-.13.032a4.218 4.218 0 00-.131-.29C10.07.547 8.95-.183 7.912-.016c-.681.11-1.246.574-1.577 1.272-.6-.276-1.21-.323-1.763-.128-.59.208-1.047.651-1.324 1.283-.367.837-.368 1.914-.013 2.938-.478.328-.835.81-1.044 1.416-.352 1.016-.234 2.241.321 3.364.061.123.127.244.2.364a2.79 2.79 0 00-1.121 1.455c-.333.974-.186 2.121.403 3.147a4.7 4.7 0 001.047 1.25c-.14.583-.034 1.224.305 1.805a2.984 2.984 0 002.244 1.454c1.428 2.68 3.198 3.83 5.923 4.986l.03.013c.384.24.82.348 1.253.348.256 0 .51-.04.748-.107.004-.002.008 0 .012-.002l.005-.003c.203-.06.397-.138.569-.239.824-.48 1.158-1.303.871-2.145-.823-2.416-.756-4.23.2-5.392 1.654-2.009 5.491-1.515 5.53-1.509l.446.06.044-.447c.006-.06.135-1.459-.682-2.41a2.293 2.293 0 00-.149-.157c.23-.051.46-.124.683-.22 1.55-.654 2.572-2.114 2.605-3.72zM6.248 18.984l-.123-.239-.268.002h-.01c-.685 0-1.387-.415-1.75-1.037-.265-.452-.32-.946-.15-1.354l.132-.317-.277-.202a3.816 3.816 0 01-1.054-1.175c-.465-.81-.587-1.697-.335-2.434a1.9 1.9 0 011.094-1.176l.514-.213-.331-.446a4.326 4.326 0 01-.4-.65c-.445-.901-.55-1.909-.278-2.694.18-.522.509-.909.951-1.12l.372-.178-.159-.381-.019-.041c-.382-.902-.425-1.86-.114-2.57.124-.282.367-.653.817-.811.434-.153.952-.047 1.462.296l.501.338.16-.583c.18-.655.569-1.076 1.069-1.157.65-.11 1.422.45 1.878 1.352a3.3 3.3 0 01.101.222l-.028.019a3.011 3.011 0 00-.496.368 3.06 3.06 0 00-.463.522l-.029.043a3.088 3.088 0 00-.206.355l-.046.09a3.115 3.115 0 00-.139.367c-.016.054-.032.106-.046.161a2.9 2.9 0 00-.072.39 3.021 3.021 0 00-.014.602A3.493 3.493 0 005.93 10.22a2.677 2.677 0 00-.722 1.833 2.69 2.69 0 001.496 2.406c-.002.232.001.459.01.68.002.073.007.144.011.215.007.148.016.295.028.439.007.082.017.162.025.243a10.486 10.486 0 00.282 1.584l.058.225c.035.122.072.242.11.361l.064.198c.049.143.103.286.158.427.016.039.029.079.045.117.072.18.15.357.233.533.023.05.05.1.073.149.062.126.124.251.19.376.036.067.074.134.112.201.06.108.119.215.182.321.043.073.088.145.132.217a14.785 14.785 0 00.546.83 15.196 15.196 0 00.388.533c.055.073.109.147.166.22.084.11.172.221.26.333l.161.204.015.018c-1.596-.889-2.723-1.969-3.706-3.9zm12.561-7.252l-.115-.02-.42.098-.047.959.434.023c.534.027.932.2 1.216.528.344.399.448.948.477 1.326-1.195-.078-4.233-.066-5.823 1.862-1.162 1.41-1.28 3.504-.353 6.227.206.603-.217.957-.487 1.114-.02.012-.04.02-.06.03-.85-2.09-1.38-3.95-1.666-5.6-.002-.01-.002-.02-.005-.03-.225-1.315-.299-2.498-.256-3.557.608-1.037 2.395-1.079 2.413-1.079a.434.434 0 00-.006-.869h-.005c-.07.001-1.31.028-2.291.644.12-.86.319-1.622.566-2.298a.426.426 0 00.1-.27 9.427 9.427 0 011.077-1.99c1.947-.405 3.416.205 3.449.218a.436.436 0 00.572-.223.435.435 0 00-.224-.572c-.06-.027-1.258-.538-2.981-.413.841-.877 1.58-1.275 1.69-1.331.631-.302 1.553.088 1.856.265a.434.434 0 10.44-.748c-.05-.03-1.026-.595-2.026-.481.086-.352.276-.672.372-.801a.434.434 0 10-.69-.527c-.027.035-.597.791-.596 1.66-.631.388-2.264 1.56-3.406 3.918a9.377 9.377 0 00-.18.4c-1.185-.81-.99-2.25-.98-2.32a.434.434 0 00-.858-.136c-.125.788.055 2.413 1.518 3.285-.323.95-.568 2.085-.643 3.424a.43.43 0 00-.007.124 17.28 17.28 0 00.15 3.12 2.177 2.177 0 01-.82-.777.435.435 0 00-.767.407 3.096 3.096 0 001.744 1.377c.292 1.601.805 3.392 1.604 5.381a1.488 1.488 0 01-.776-.218 1.712 1.712 0 01-.124-.09c-.047-.038-.095-.076-.137-.122l-.006-.007-.183-.207c-2.72-3.13-4.08-5.42-3.972-9.249l.009-.316-.3-.106a1.82 1.82 0 01-1.211-1.711c0-.546.242-1.058.664-1.405l.285-.233-.185-.32A2.628 2.628 0 019.01 6.15l.528-.022-.124-.513a2.22 2.22 0 01-.064-.52c0-.133.015-.262.038-.39.006-.033.015-.064.022-.096a2.235 2.235 0 01.282-.69l.007-.013c.14-.218.319-.41.524-.569.028-.022.058-.04.087-.061a2.237 2.237 0 01.36-.204c.228-.103.474-.174.736-.194l.402-.03v-.404l-.001-.034A1.617 1.617 0 0113.42.82c.393 0 .775.15 1.076.421l.304.275.292-.288A1.403 1.403 0 0116.255.83a1.423 1.423 0 011.177 1.013c.053.178.068.36.047.539l-.045.484h.489c1.271 0 2.335.994 2.422 2.263l.02.285.27.095a3.243 3.243 0 012.175 3.133c-.026 1.263-.84 2.416-2.075 2.938a3.016 3.016 0 01-1.926.151z" fill="#333"/></g><defs><clipPath id="clip0"><path fill="#fff" d="M0 0h25v25H0z"/></clipPath></defs></svg>