<svg width="25" height="25" fill="none" xmlns="http://www.w3.org/2000/svg"><g opacity=".5" clip-path="url(#clip0)" fill="#333"><path d="M23.921 6.831c-.89-2.192-2.55-5.042-5.406-6.18-2.096-.834-4.525-.633-7.218.594-3.368 1.535-4.47 4.287-3.1 7.749.424 1.074.263 2.246-.432 3.137-.696.892-1.798 1.33-2.945 1.183-1.83-.24-3.233.17-4.061 1.187-.635.78-1.196 2.267-.27 4.93l.017.043c.066.144 1.67 3.545 5.787 4.906.89.294 1.811.376 2.702.454l.14.013c.298.027.811.06 1.477.06 1.663 0 4.28-.212 6.88-1.288 3.786-1.566 6.189-4.356 7.14-8.292.669-2.765.423-5.704-.71-8.496zm-.226 8.27c-.875 3.619-3.086 6.185-6.572 7.628-3.438 1.421-6.916 1.245-7.901 1.157l-.141-.012c-.875-.078-1.7-.15-2.484-.41-3.558-1.176-5.078-4.116-5.206-4.376-.6-1.738-.558-3.15.116-3.978.606-.743 1.708-1.033 3.187-.84 1.493.198 2.923-.381 3.831-1.546.908-1.163 1.12-2.69.568-4.085-1.185-2.996-.309-5.189 2.604-6.516 2.445-1.114 4.62-1.308 6.46-.575 2.541 1.01 4.05 3.628 4.87 5.646 1.058 2.604 1.288 5.338.668 7.906z"/><path d="M16.139 9.09a2.414 2.414 0 002.412-2.412 2.414 2.414 0 00-2.412-2.412 2.414 2.414 0 00-2.412 2.412 2.414 2.414 0 002.412 2.411zm0-3.86a1.449 1.449 0 010 2.894 1.448 1.448 0 010-2.893z"/><path d="M23.049 11.722a12.419 12.419 0 00-.91-4.126c-2.094-5.157-5.533-6.725-10.202-4.6-.935.427-3.78 1.723-2.24 5.614.559 1.417.397 2.94-.445 4.178-.954 1.402-2.604 2.135-4.31 1.91-1.271-.17-2.225.083-2.665.702-.466.657-.462 1.794.013 3.2l.028.067c.24.47 1.597 2.864 4.673 3.881.699.231 1.462.299 2.27.37l.136.012c.409.037.848.055 1.305.055 9.112 0 11.466-5.669 12.054-8.107a11.237 11.237 0 00.293-3.156zM12.337 3.874c1.222-.557 2.347-.839 3.344-.839 2.365 0 4.237 1.657 5.564 4.923.397.977.648 1.973.77 2.968-2.16-.61-5.986 1.286-6.625 1.615-2.885.917-4.221-.398-4.588-.864a5.428 5.428 0 00-.21-3.421c-1.057-2.678.289-3.718 1.745-4.382zM10.05 13.33a5.54 5.54 0 00.381-.66c.564.516 1.568 1.15 3.113 1.15.633 0 1.358-.108 2.18-.373a.49.49 0 00.075-.031c1.9-.99 5.192-2.192 6.298-1.411.02.895-.07 1.783-.278 2.647l-.015.06c-1.05-.295-3.598-.592-7.803 1.425-1.438.69-2.68.824-3.689.401-.976-.409-1.523-1.258-1.765-1.736a5.408 5.408 0 001.503-1.472zm-.567 8.639l-.137-.012c-.75-.066-1.46-.129-2.052-.325-2.686-.888-3.908-3.01-4.102-3.375-.413-1.244-.338-2.002-.128-2.298.21-.296.887-.42 1.752-.305a5.497 5.497 0 002.77-.352c.028.157.059.335.087.526a6.131 6.131 0 002.57 4.146c.992.684 1.663 1.302 1.693 2.005-.397.025-.805.041-1.234.041-.428 0-.839-.017-1.219-.051zm3.418-.077c-.078-1.307-1.369-2.2-2.111-2.712a5.14 5.14 0 01-1.865-2.367c.283.234.616.446 1.002.61 1.278.54 2.789.4 4.492-.416 3.95-1.895 6.258-1.6 7.103-1.37-.802 2.208-2.946 5.562-8.621 6.255z"/></g><defs><clipPath id="clip0"><path fill="#fff" d="M0 0h25v25H0z"/></clipPath></defs></svg>