<svg width="25" height="25" fill="none" xmlns="http://www.w3.org/2000/svg"><g opacity=".5" clip-path="url(#clip0)" fill="#333"><path d="M16.93 18.154h.004l-.045-.551c-.075-.93-.32-1.906-.77-3.072a3.81 3.81 0 01-.228-1.076c-.063-.83.1-1.681.473-2.163.073-.094.133-.2.193-.305.25-.441.39-.97.388-1.53v-.002a2.576 2.576 0 00-.006-.127l-.018-.636-.013.003c-.277-3.247-2.188-4.106-2.818-4.307-.054-.094-.129-.279-.18-.62-.003-.026-.012-.049-.018-.073.487-.163.84-.434.84-.85V1.047C14.732.274 13.522 0 12.486 0s-2.245.274-2.245 1.048v1.796c0 .417.353.688.839.85-.006.024-.014.048-.018.073-.05.343-.126.527-.197.631-.614.192-2.524 1.05-2.801 4.298l-.016-.005-.015.643-.005.122c-.004.695.203 1.347.58 1.837.339.437.51 1.18.49 1.934a4.25 4.25 0 01-.115.892 3.36 3.36 0 01-.129.413c-.112.291-.212.571-.3.84-.262.81-.414 1.534-.47 2.232-.137 1.689-.263 4.032-.09 5.627.017.814.779 1.769 4.268 1.769 2.928 0 4.686-.66 4.715-1.768.157-1.43.072-3.457-.046-5.078zm-7.892-.944c.012-.083.023-.165.038-.25.024-.133.055-.27.087-.409.019-.082.035-.163.057-.248.04-.153.088-.314.138-.474.023-.075.041-.147.067-.224.079-.24.167-.49.268-.75.364-.943.389-2.098.13-3.036-.116-.412-.279-.787-.503-1.076l-.008-.012a1.705 1.705 0 01-.182-.308 1.997 1.997 0 01-.084-.21l-.026-.076a2.248 2.248 0 01-.063-.285c1.012.213 2.24.328 3.53.328 1.29 0 2.517-.115 3.529-.327a2.253 2.253 0 01-.063.285l-.026.075a1.944 1.944 0 01-.084.21l-.038.08a1.707 1.707 0 01-.152.24c-.458.593-.694 1.521-.678 2.465.01.566.11 1.139.306 1.647.1.262.19.51.268.752.025.075.043.145.066.218.05.162.099.324.139.479.022.086.038.167.057.251.031.136.062.272.086.404.016.088.027.175.04.262.012.085.022.17.032.255-.975.219-2.194.338-3.482.338-1.288 0-2.507-.12-3.482-.338.01-.089.02-.177.033-.266zM11.14 1.146c.142-.089.59-.248 1.348-.248.758 0 1.205.16 1.347.248v1.6c-.116.072-.438.19-.965.232a5.425 5.425 0 01-.764 0c-.526-.041-.85-.16-.965-.232v-1.6zm-.006 4.11a.919.919 0 00.528-.421c.135-.235.233-.55.318-.964l.038.001c.157.013.315.02.47.02.176 0 .345-.008.535.006.057.386.155.701.29.936a.92.92 0 00.53.422c.483.15 2 .85 2.185 3.672-.983.228-2.222.353-3.54.353-1.317 0-2.556-.125-3.54-.353.185-2.821 1.702-3.521 2.186-3.672zm4.95 17.898l-.003.05c0 .23-.94.897-3.818.897-2.665 0-3.369-.588-3.369-.898l-.002-.05c-.147-1.319-.074-3.215.036-4.777 1.019.217 2.258.336 3.56.336 1.301 0 2.54-.119 3.56-.336.109 1.56.183 3.457.036 4.778z"/><path d="M12.403 2.187a.449.449 0 100-.898h-.45a.449.449 0 100 .898h.45zM11.796 22.3c-.847.034-1.152-.164-1.243-.252-.08-.076-.087-.147-.09-.147v.002l.003-.496a.449.449 0 10-.898 0v.426a1.13 1.13 0 00.31.81c.345.372.927.56 1.734.56.07 0 .144-.002.219-.005a.449.449 0 00.43-.466.46.46 0 00-.465-.431zm-1.779-1.791a.45.45 0 00.45-.45v-.453a.449.449 0 10-.899 0v.454c0 .248.2.449.45.449zm.37-12.133a.449.449 0 00.521-.362c.18-1.003 1.065-1.454 1.102-1.473a.45.45 0 00-.392-.808c-.054.027-1.332.66-1.594 2.122a.45.45 0 00.363.52z"/></g><defs><clipPath id="clip0"><path fill="#fff" d="M0 0h25v25H0z"/></clipPath></defs></svg>