<svg width="25" height="25" fill="none" xmlns="http://www.w3.org/2000/svg"><g opacity=".5" clip-path="url(#clip0)" fill="#333"><path d="M21.818 21.608a.455.455 0 11-.909 0 .455.455 0 01.91 0zm-.909-1.364a.455.455 0 11-.91 0 .455.455 0 01.91 0zM20 18.88a.455.455 0 11-.909 0 .455.455 0 01.91 0zm1.818 0a.455.455 0 11-.909 0 .455.455 0 01.91 0zm-2.728-1.363a.455.455 0 11-.908 0 .455.455 0 01.909 0zm1.819 0a.455.455 0 11-.91 0 .455.455 0 01.91 0zm-2.727-1.364a.455.455 0 11-.91 0 .455.455 0 01.91 0zm1.818 0a.455.455 0 11-.909 0 .455.455 0 01.91 0zm2.727 6.818a.455.455 0 11-.909 0 .455.455 0 01.91 0zm-1.818 0a.455.455 0 11-.909 0 .455.455 0 01.909 0zM20 21.608a.455.455 0 11-.909 0 .455.455 0 01.91 0zm-.91-1.364a.455.455 0 11-.908 0 .455.455 0 01.909 0zm-.908-1.364a.455.455 0 11-.91 0 .455.455 0 01.91 0zm-.909-1.363a.455.455 0 11-.91 0 .455.455 0 01.91 0zm.909 4.091a.455.455 0 11-.91 0 .455.455 0 01.91 0zm-.909-1.364a.455.455 0 11-.91 0 .455.455 0 01.91 0zm-.909-1.364a.455.455 0 11-.91 0 .455.455 0 01.91 0zm2.726 4.091a.455.455 0 11-.908 0 .455.455 0 01.909 0zm-1.817 0a.455.455 0 11-.91 0 .455.455 0 01.91 0zm-.909-1.363a.455.455 0 11-.91 0 .455.455 0 01.91 0zm-.909-1.364a.455.455 0 11-.91 0 .455.455 0 01.91 0zm-.909 1.364a.455.455 0 11-.91 0 .455.455 0 01.91 0zm.909 1.363a.455.455 0 11-.91 0 .455.455 0 01.91 0zm-1.818 0a.455.455 0 11-.91 0 .455.455 0 01.91 0z"/><path d="M24.26 20.783c-.46-.57-1.106-1.622-1.73-2.64-.654-1.066-1.273-2.073-1.749-2.66-.74-.915-1.65-1.473-2.6-1.582V.7a.454.454 0 00-.454-.455H3.639l-.007.001-.007-.001H.455A.455.455 0 000 .699v20.909c0 .181.108.346.275.418l3.171 1.363a.456.456 0 00.18.037h7.042c.027.118.062.234.117.342.238.466.846 1.022 2.392 1.022h8.254c1.715 0 2.954-.532 3.396-1.458.358-.75.157-1.655-.566-2.549zM3.172 22.281L.91 21.309V1.153h2.262v21.128zm.923-21.128h13.179v12.773a3.15 3.15 0 00-.362.085c-.032.01-.064.023-.096.034-.092.03-.184.062-.275.101-.045.02-.09.043-.134.064a3.612 3.612 0 00-.227.117c-.047.027-.094.057-.14.086a3.77 3.77 0 00-.346.245 4.26 4.26 0 00-.202.17c-.042.038-.085.075-.126.115-.071.068-.14.14-.208.215-.034.037-.069.072-.102.11a5.32 5.32 0 00-.29.365c-.408.566-.906 1.422-1.44 2.364l-.332.587c-.206.364-.413.73-.616 1.084-.419.729-.82 1.398-1.14 1.84l-.016.025c-.064.09-.122.178-.176.266-.016.026-.03.052-.045.079-.042.072-.08.143-.115.214l-.037.08c-.032.07-.06.14-.085.21l-.027.075c-.006.02-.015.04-.02.06H4.093V1.153zm9.082 22.728c-.834 0-1.41-.192-1.58-.526a.45.45 0 00.222-.384.446.446 0 00-.174-.349c.007-.017.011-.033.019-.05.005-.014.012-.027.018-.04.03-.063.063-.128.102-.194.01-.017.019-.035.03-.052.047-.08.1-.16.16-.243.014-.021.03-.046.046-.067a.45.45 0 00.254.086.455.455 0 00.454-.454c0-.163-.09-.3-.219-.38.125-.202.254-.416.386-.64a.445.445 0 00.288.11.455.455 0 00.454-.454.45.45 0 00-.3-.423l.11-.193.279-.492c.082.117.212.2.366.2a.451.451 0 00.032-.903c.152-.268.302-.531.45-.784a.449.449 0 00.427.322.455.455 0 100-.909c-.032 0-.06.012-.091.019.202-.334.39-.629.558-.865a.45.45 0 00.442.392.455.455 0 000-.91c-.006 0-.01.004-.016.004a3.077 3.077 0 01.631-.523c.008-.005.015-.012.024-.017a2.4 2.4 0 011.192-.372h.062c.805 0 1.61.446 2.273 1.265.44.54 1.07 1.57 1.68 2.564.264.43.53.862.788 1.268a.448.448 0 00-.27-.097.455.455 0 10.455.454c0-.034-.013-.064-.02-.097.286.443.554.835.792 1.137a.455.455 0 10.137.324.45.45 0 00-.119-.3l.037.047c.34.42.517.82.53 1.163a.454.454 0 00-.448.453c0 .113.045.213.113.292-.434.39-1.255.617-2.319.617h-8.255z"/><path d="M9.546 11.711c.25 0 .454-.203.454-.454V9.594c0-.068-.005-.134-.01-.2l.14.14a.453.453 0 00.643 0l.147-.148c-.005.069-.01.138-.01.208v1.663c0 .251.203.454.454.454h1.662A2.886 2.886 0 0015.91 8.83V7.166a.454.454 0 00-.454-.455h-1.663c-.376 0-.735.075-1.065.207a2.882 2.882 0 00-.779-2.638l-1.176-1.176a.454.454 0 00-.642 0L8.954 4.281a2.88 2.88 0 00-.78 2.634 2.857 2.857 0 00-1.056-.204H5.455A.455.455 0 005 7.166v1.663a2.886 2.886 0 002.883 2.882h1.663zM15 7.621v1.208a1.976 1.976 0 01-1.973 1.973h-1.209V9.594c0-1.089.886-1.974 1.974-1.974H15zM9.597 4.922l.854-.854.854.854c.77.77.77 2.022 0 2.792l-.854.854-.854-.855a1.977 1.977 0 010-2.79zM5.909 8.83V7.621h1.208c1.089 0 1.974.885 1.974 1.973v1.209H7.883a1.976 1.976 0 01-1.974-1.974zm8.637 5.96a.454.454 0 00-.455-.455H7.273a.454.454 0 100 .91h6.818a.454.454 0 00.455-.455zm-5.91-1.818a.454.454 0 100 .909h4.546a.454.454 0 100-.91H8.636zm5 3.181a.454.454 0 00-.454-.454H8.636a.454.454 0 100 .909h4.546a.454.454 0 00.454-.455z"/></g><defs><clipPath id="clip0"><path fill="#fff" d="M0 0h25v25H0z"/></clipPath></defs></svg>