<svg width="25" height="25" fill="none" xmlns="http://www.w3.org/2000/svg"><g opacity=".5" clip-path="url(#clip0)" fill="#333"><path d="M24.644 19.374c-.03-.122-.018-.291-.005-.47.021-.302.046-.643-.114-.96-.153-.303-.434-.484-.681-.644-.157-.1-.305-.196-.387-.3-.076-.096-.132-.258-.19-.43-.096-.279-.204-.595-.463-.826-.244-.217-.558-.29-.835-.353a5.04 5.04 0 01-.224-.056 7.62 7.62 0 00-.09-.246 3.516 3.516 0 01-.136-.403c-.03-.122-.018-.291-.005-.47.021-.302.046-.643-.114-.96-.153-.303-.434-.484-.681-.643-.157-.101-.305-.197-.387-.3-.076-.096-.132-.259-.19-.43-.096-.28-.204-.596-.463-.826-.244-.218-.558-.29-.835-.354-.187-.043-.364-.084-.477-.158-.102-.067-.206-.208-.316-.357-.17-.232-.363-.495-.668-.64-.29-.139-.606-.125-.886-.114-.193.009-.376.016-.505-.027-.117-.04-.253-.152-.398-.272-.218-.181-.466-.387-.79-.456-.312-.067-.615.017-.882.09-.188.052-.365.1-.5.087-.123-.013-.282-.095-.45-.182-.25-.13-.534-.276-.863-.276-.328 0-.612.147-.863.276-.167.087-.326.17-.45.182-.134.014-.311-.035-.499-.087-.267-.073-.57-.157-.882-.09-.324.069-.572.275-.79.456-.145.12-.281.233-.399.272-.128.043-.311.036-.505.028-.28-.012-.596-.025-.885.113-.305.145-.498.408-.668.64-.11.15-.214.29-.316.357-.114.074-.29.115-.477.158a2.475 2.475 0 00-.61.199 59.058 59.058 0 01-3.93-.484c.032-.105.073-.212.115-.323.065-.162.12-.327.165-.496.06-.241.041-.492.025-.713-.015-.22-.03-.427.032-.55.058-.114.236-.23.407-.34.195-.125.415-.267.577-.472.159-.2.243-.446.317-.662.07-.206.137-.401.243-.495.094-.085.295-.131.49-.176.234-.053.5-.115.729-.264.221-.145.38-.36.519-.55.127-.173.247-.337.374-.397.115-.055.31-.047.517-.038.244.01.52.022.786-.067.256-.086.464-.259.649-.412.163-.136.318-.264.454-.293.125-.027.313.025.512.08.237.065.507.14.787.11.271-.028.514-.154.729-.265.188-.097.365-.189.504-.189.138 0 .316.092.504.19.214.11.457.236.728.264.28.03.55-.045.787-.11.199-.055.387-.107.512-.08.136.03.29.157.454.293.185.153.394.326.65.412.264.089.541.077.785.067.207-.008.402-.017.517.038.127.06.248.224.375.397.14.19.297.405.519.55.229.15.494.21.728.264.195.045.396.091.49.176.106.094.173.289.244.495.074.216.158.461.316.662.163.205.383.347.577.472.172.111.35.226.408.34.062.123.047.33.03.55-.015.221-.033.472.026.713.045.169.1.334.165.496.048.126.094.244.125.36l.754-.207a4.643 4.643 0 00-.149-.432 3.516 3.516 0 01-.136-.403c-.03-.122-.018-.291-.005-.47.022-.302.046-.643-.114-.96-.153-.303-.434-.484-.681-.643-.157-.102-.305-.197-.387-.3-.076-.096-.131-.259-.19-.43-.096-.28-.204-.596-.462-.827-.244-.217-.558-.29-.835-.353-.188-.043-.364-.084-.478-.158-.102-.067-.206-.208-.316-.357-.17-.232-.363-.495-.668-.64-.29-.139-.606-.125-.885-.114-.194.009-.377.016-.505-.027-.118-.04-.254-.152-.399-.272-.218-.182-.466-.387-.79-.456-.312-.067-.615.017-.882.09-.188.052-.365.1-.5.087-.123-.013-.282-.095-.45-.182-.25-.13-.534-.276-.862-.276-.329 0-.613.146-.863.276-.168.087-.327.169-.45.182-.135.014-.312-.035-.5-.087-.267-.073-.57-.157-.882-.09-.324.069-.572.274-.79.456-.145.12-.281.233-.399.272-.128.043-.31.036-.504.027-.28-.011-.596-.025-.886.114-.304.145-.498.408-.668.64-.11.149-.213.29-.316.357-.113.074-.29.115-.477.158-.277.064-.592.136-.835.353-.259.231-.367.547-.462.826-.06.172-.115.334-.19.43-.082.104-.23.2-.388.3-.247.16-.527.34-.681.645-.16.316-.135.657-.114.958.013.18.026.349-.004.47a3.531 3.531 0 01-.137.404c-.103.27-.22.577-.22.926a.39.39 0 00.327.386c1.269.208 2.557.376 3.841.502-.034.085-.063.17-.091.252-.059.172-.114.335-.19.43-.082.104-.23.2-.387.3-.248.16-.528.341-.682.645-.16.316-.135.657-.113.959.013.179.025.348-.005.47a3.527 3.527 0 01-.136.403c-.103.27-.22.577-.22.926v.332l.327.053c1.444.238 2.913.423 4.373.553a.495.495 0 01-.032.047c-.082.104-.23.2-.387.3-.248.16-.528.34-.682.644-.16.317-.135.658-.113.96.013.178.025.348-.005.47a3.535 3.535 0 01-.136.403c-.103.27-.22.577-.22.926v.332l.327.053c3.185.523 6.408.786 9.636.787h.194c3.54-.012 8.984-.778 9.038-.785l.336-.048v-.339c0-.349-.117-.655-.22-.926a3.522 3.522 0 01-.136-.403zm-21.35-4.006c.065-.162.12-.327.165-.496.06-.241.041-.492.025-.713-.016-.22-.03-.427.031-.55.058-.114.236-.23.408-.34.194-.125.414-.267.577-.472.159-.2.242-.446.316-.662.057-.166.112-.324.186-.428l.044.003.005-.062.008-.008c.095-.085.296-.131.49-.176.235-.054.5-.115.73-.264.221-.145.379-.36.518-.55.127-.173.248-.337.375-.397.114-.055.31-.047.517-.038.244.01.52.022.785-.067.256-.086.465-.259.65-.412.163-.136.318-.264.454-.293.125-.027.313.025.512.08.237.065.506.14.786.11.272-.028.515-.154.73-.265.187-.097.365-.189.503-.189.139 0 .316.092.504.19.215.11.458.236.729.264.28.03.55-.045.787-.11.199-.055.386-.107.511-.08.137.03.291.157.455.293.184.153.393.326.649.412.265.089.542.077.786.067.207-.009.402-.017.517.038.127.06.247.224.374.397.14.19.297.405.519.55.23.15.495.21.729.264.194.045.396.091.49.175.106.095.173.29.243.496.074.216.158.461.317.662.162.205.382.347.576.472.172.111.35.226.408.34.062.123.047.33.031.55-.005.067-.01.137-.012.21a1.178 1.178 0 00-.214-.134c-.29-.138-.606-.124-.886-.113-.194.008-.377.016-.505-.027-.117-.04-.254-.152-.398-.272a6.145 6.145 0 00-.193-.156l.5-.5-.552-.553-.73.73c-.246-.01-.483.054-.697.113-.188.052-.366.1-.5.087-.123-.013-.282-.095-.45-.182-.25-.13-.534-.276-.863-.276-.328 0-.612.147-.863.276-.167.087-.326.17-.45.182-.134.014-.311-.035-.499-.087-.267-.073-.57-.157-.882-.09-.324.069-.572.275-.79.456-.145.12-.281.233-.399.272-.128.043-.31.036-.505.028-.279-.012-.596-.025-.885.113-.305.145-.498.408-.668.64-.11.15-.214.29-.316.357-.114.074-.29.115-.477.158-.278.064-.592.136-.835.354-.137.126-.246.28-.32.45a58.927 58.927 0 01-4.165-.504c.03-.105.072-.213.114-.323zm12.33 5.726c-3.12.01-6.237-.23-9.32-.715.031-.105.073-.213.115-.323.065-.162.12-.327.165-.496.06-.241.041-.492.025-.713-.016-.22-.03-.427.031-.55.059-.114.236-.23.408-.34.194-.125.414-.267.577-.472.159-.2.242-.446.316-.662.071-.206.138-.401.243-.496.095-.084.296-.13.49-.175.235-.054.5-.115.73-.265.221-.144.379-.36.518-.549.127-.173.248-.337.375-.397.114-.055.31-.047.517-.038.244.01.52.022.786-.067.255-.086.464-.259.649-.412.163-.136.318-.264.454-.293.125-.027.313.025.512.08.237.065.506.139.787.11.27-.028.514-.154.728-.265.188-.097.366-.189.504-.189.139 0 .316.092.504.19.215.11.458.236.73.264.28.03.549-.045.786-.11.199-.055.387-.107.512-.08.136.03.29.157.454.293.184.153.393.326.65.412.264.089.54.077.785.067.207-.009.402-.017.517.038.127.06.247.224.375.397.139.19.297.405.518.55.23.15.495.21.729.264.195.045.396.091.49.175.106.095.173.29.244.496.074.216.157.461.316.662.162.205.382.347.577.472.172.111.35.226.407.34.063.123.047.33.032.55-.016.221-.035.472.025.713.044.169.1.334.165.496.041.107.08.212.112.314-1.31.174-5.6.714-8.538.724z"/><path d="M8.705 17.463l.552-.553.782.781-.553.553-.78-.781zm2.656-1.668l.698-.349.391.781-.698.35-.39-.782zm3.483-.951h.781v1.171h-.781v-1.171zm3.236 1.676l.78-.78.553.552-.781.781-.552-.552zm2.734 1.563l.78-.78.553.552-.781.78-.552-.552zM5.581 12.775l.552-.552.782.78-.553.553-.78-.78zm2.657-1.666l.699-.35.39.782-.698.349-.39-.781zm3.481-.953h.781v1.172h-.781v-1.172zm3.236 1.677l.781-.781.553.552-.782.781-.552-.552zM3.238 7.502l.553-.552.78.78-.552.553-.78-.78zm2.659-1.664l.698-.35.39.781-.698.35-.39-.781zm3.478-.955h.781v1.171h-.781V4.883zm3.237 1.677l.781-.78.553.551-.781.782-.553-.553zm2.734 1.563l.781-.781.553.552-.781.781-.553-.552z"/></g><defs><clipPath id="clip0"><path fill="#fff" d="M0 0h25v25H0z"/></clipPath></defs></svg>