<svg width="25" height="25" fill="none" xmlns="http://www.w3.org/2000/svg"><g opacity=".5" clip-path="url(#clip0)" fill="#333"><path d="M15.946 11.134a.44.44 0 00.558-.275.776.776 0 01.981-.484 1.656 1.656 0 002.098-1.035.44.44 0 10-.833-.283.775.775 0 01-.982.484 1.659 1.659 0 00-2.098 1.035.44.44 0 00.276.558zm1.041-3.065a.44.44 0 00.558-.276.77.77 0 01.982-.484 1.656 1.656 0 002.098-1.035.44.44 0 00-.833-.283.774.774 0 01-.982.485 1.64 1.64 0 00-1.263.082 1.644 1.644 0 00-.835.952.44.44 0 00.275.559zm1.04-3.066a.443.443 0 00.558-.275.573.573 0 01.725-.358 1.45 1.45 0 001.842-.908.44.44 0 00-.833-.283.569.569 0 01-.726.357 1.455 1.455 0 00-1.841.908.44.44 0 00.275.56z"/><path d="M21.214 11.102a.573.573 0 00-.251-.094c.874-2.84 1.354-5.624 1.422-8.274C22.407 1.9 22 .787 21.178.272c-.394-.248-1.04-.452-1.878-.02-1.315.677-2.254 2.672-3.01 4.275l-.128.272a2.548 2.548 0 00-1.394-1.765 2.098 2.098 0 00-1.631-1.622 1.517 1.517 0 00-1.291-1.21c-.33-.039-.656.03-.935.192a1.596 1.596 0 00-.778-.202c-.765 0-1.408.533-1.576 1.247a1.981 1.981 0 00-1.456 1.888 2.2 2.2 0 00-1.5 2.93 1.729 1.729 0 00-.242 1.777c-.44-.48-1.058-.871-1.752-.846a.44.44 0 00.013.88h.042c.413 0 .796.272 1.075.589-.698.201-1.54.528-1.932 1.269-.236.446-.264.994-.106 1.621a.764.764 0 00-.11.432l.749 10.642A2.506 2.506 0 005.84 25h12.35a2.504 2.504 0 002.504-2.371l.767-11.012v-.007a.57.57 0 00-.248-.508zM16.52 6.057c.174-.325.364-.728.566-1.155.66-1.405 1.567-3.328 2.616-3.869.382-.197.712-.201 1.008-.017.51.32.81 1.129.795 1.695-.067 2.6-.543 5.338-1.413 8.136-.028.092-.092.278-.182.533l-.75.332a.44.44 0 00-.047.026c-.217.13-.46.194-.702.196a1.39 1.39 0 01-.702-.196l-.314-.189a2.271 2.271 0 00-1.17-.324h-.014c-.41-.002-.82.105-1.185.324l-.313.189a1.382 1.382 0 01-.563.177l.035-.113c.12-.41.25-.814.386-1.214.051-.153.105-.304.158-.455.114-.318.232-.632.354-.944.055-.14.108-.28.164-.418.384-.936.807-1.844 1.273-2.714zM10.913 7.1l.149-.192v-.002a.942.942 0 00.174-.798l1.837-.402c.013.057.026.112.047.164.082.202.23.37.434.487l.209.112c.06.03.119.063.178.096.029.015.058.03.086.047.053.03.104.062.155.094a2.578 2.578 0 01.27.193 1.893 1.893 0 01.24.236c.069.08.134.165.187.265-.187.412-.362.832-.532 1.256l-.08.195c-.483.122-.949.351-1.524.76-.725.516-1.265.653-2.155.524l-.267-1.223c-.18-.826.212-1.327.592-1.812zm2.181-2.671a.185.185 0 01.213.14.178.178 0 01-.025.136.18.18 0 01-.113.08l-2.43.531a.185.185 0 01-.217-.139.184.184 0 01.14-.216l1.29-.283 1.143-.25zm-1.421 6.804c-.034.003-.068.003-.101.007-.24.024-.477.085-.701.186l-.085-.385c.127.01.254.021.372.021.767 0 1.385-.228 2.095-.733.223-.16.421-.28.61-.38l-.12.345c-.028.082-.059.164-.086.247-.13.391-.252.786-.367 1.184l-.293-.175a2.27 2.27 0 00-1.17-.325l-.015.001c-.047 0-.093.005-.14.007zM6.41 6.683l.288-.237-.187-.322a1.325 1.325 0 011.092-1.986l.534-.023-.124-.52a1.09 1.09 0 01-.032-.254c0-.567.443-1.044 1.008-1.087l.406-.031v-.438a.739.739 0 01.738-.714c.23 0 .394.105.492.193l.308.279.296-.292a.623.623 0 01.513-.175.635.635 0 01.517.448c.024.08.03.156.021.234l-.051.491h.495c.632 0 1.161.494 1.205 1.125l.02.29.273.095c.687.242 1.14.892 1.124 1.62a1.582 1.582 0 01-.289.874c-.294-.25-.611-.419-.878-.559l-.203-.109c-.019-.01-.042-.029-.05-.075a.25.25 0 01.062-.196.945.945 0 00.206-.812l-.053-.243a.931.931 0 00-.41-.589.93.93 0 00-.706-.126l-.118.025h-.004l-1.291.283-1.26.275a.93.93 0 00-.589.41.93.93 0 00-.127.707l.026.12.001.003.026.119c.064.293.267.54.544.659a.264.264 0 01.146.142c.011.032.005.049-.021.091-.043.06-.09.119-.139.18l-.15.193-.05.068c-.036.05-.073.1-.109.154-.02.028-.039.058-.058.088a3.678 3.678 0 00-.097.159 2.9 2.9 0 00-.146.288 2.412 2.412 0 00-.138.386c-.005.017-.007.035-.011.052-.021.09-.038.183-.05.28-.004.038-.005.079-.007.119-.004.052-.01.101-.01.155l-.006-.006-.018-.023a5.263 5.263 0 00-.303-.363 4.14 4.14 0 00-.195-.197l-.063-.06a3.052 3.052 0 00-.249-.201c-.023-.017-.047-.031-.07-.047a2.264 2.264 0 00-.479-.246c-.022-.008-.044-.018-.066-.025a1.807 1.807 0 00-.217-.055c-.009-.002-.017-.001-.026-.002-.014-.003-.029-.009-.044-.011-.051-.008-.1-.005-.15-.008-.035-.002-.07-.01-.105-.01-.01 0-.021.003-.032.003-.069 0-.135.009-.2.017-.034.004-.067.007-.1.013-.087.016-.17.038-.254.064l-.038.012c-.219.074-.426.18-.62.307a.857.857 0 01.253-.978zm-2.827 3.654c.187-.35.639-.618 1.423-.843.367-.104.707-.3.984-.564.125-.12.243-.222.356-.314.355-.288.66-.445.937-.48a.893.893 0 01.273.005c.022.003.044.01.066.017.04.01.081.02.122.036.027.01.053.026.08.038.038.019.076.035.114.059.03.017.06.04.09.062.036.025.071.047.107.077.034.026.067.059.1.09.034.03.068.057.101.091.037.038.074.081.112.123.03.034.06.065.091.102.042.05.084.107.126.162.027.036.054.067.08.105.049.067.097.14.145.215.021.032.043.061.064.095.07.11.14.228.211.353.324.571.431 1.415.29 2.15a1.365 1.365 0 01-.546-.18l-.313-.187a2.27 2.27 0 00-1.17-.325h-.014a2.27 2.27 0 00-1.185.325l-.152.091c-.266.16-.565.24-.863.243a1.698 1.698 0 01-.863-.243l-.591-.355a.752.752 0 00-.249-.094c-.069-.348-.044-.63.075-.854zm16.235 12.238a1.627 1.627 0 01-1.625 1.545H5.843a1.629 1.629 0 01-1.626-1.553l-.732-10.402.383.23c.415.25.88.372 1.345.369.465.003.93-.12 1.345-.369l.153-.091c.216-.13.46-.195.702-.197.243.002.485.067.702.197l.314.188c.397.238.846.34 1.29.316.04-.002.08-.002.12-.005.005 0 .01-.004.014-.004.3-.034.596-.128.867-.283.026-.01.053-.01.077-.024l.314-.188c.216-.13.459-.195.701-.197.243.002.486.067.703.197l.313.188c.333.2.704.303 1.077.318l.022.002c.129.004.257 0 .385-.019.073-.009.144-.027.216-.044.034-.008.07-.016.103-.026a2.27 2.27 0 00.565-.231l.314-.189c.216-.13.459-.194.702-.197.242.003.485.067.702.197l.314.189c.363.217.77.324 1.178.323h.02a2.27 2.27 0 001.146-.309l.863-.384c.018-.008.032-.024.049-.034l.067-.03-.733 10.517z"/><path d="M5.228 18.92h3.08a.44.44 0 100-.88h-3.08a.44.44 0 000 .88zm0 1.76h3.96a.44.44 0 100-.88h-3.96a.44.44 0 100 .88zm4.84.88h-4.84a.44.44 0 100 .88h4.84a.44.44 0 100-.88zm2.639 0h-.88a.44.44 0 100 .88h.88a.44.44 0 100-.88z"/></g><defs><clipPath id="clip0"><path fill="#fff" d="M0 0h25v25H0z"/></clipPath></defs></svg>