<svg width="25" height="25" fill="none" xmlns="http://www.w3.org/2000/svg"><g opacity=".5" fill="#333"><path d="M18.053 8.08a2.88 2.88 0 002.404-2.404l.46-1.664-1.663.46a2.88 2.88 0 00-2.405 2.404l-.2.729h-.001L.136 24.118a.461.461 0 10.653.653L17.262 8.298l.791-.218zm-.293-1.04a1.96 1.96 0 011.66-1.659l.172-.044-.044.172a1.96 1.96 0 01-1.66 1.66l-.172.044.044-.173z"/><path d="M15.037 8.845l.851-1.5a2.88 2.88 0 000-3.4l-.85-1.501-.852 1.5a2.879 2.879 0 000 3.401l.851 1.5zm-.09-4.374l.09-.153.091.153a1.96 1.96 0 010 2.348l-.09.153-.091-.153a1.96 1.96 0 010-2.348zm2.614 4.549l-1.5.85 1.5.852c.511.37 1.106.555 1.7.555.596 0 1.19-.185 1.701-.555l1.5-.851-1.5-.852a2.877 2.877 0 00-3.4 0zm2.875.941a1.96 1.96 0 01-2.348 0l-.153-.09.154-.091a1.958 1.958 0 012.347 0l.153.09-.153.091zm-8.341 1.827l.851-1.501a2.878 2.878 0 000-3.4l-.85-1.5-.852 1.5a2.879 2.879 0 000 3.4l.851 1.501zm-.09-4.374l.09-.154.091.154a1.96 1.96 0 010 2.346l-.09.154-.091-.154a1.96 1.96 0 010-2.346zm2.615 4.546l-1.5.852 1.5.85a2.884 2.884 0 003.401.001l1.5-.851-1.5-.851a2.881 2.881 0 00-3.4 0zm2.874.942a1.96 1.96 0 01-2.347 0l-.154-.09.154-.09a1.961 1.961 0 012.347 0l.154.09-.154.09zM9.153 14.73l.851-1.501a2.88 2.88 0 000-3.4l-.85-1.5-.852 1.5a2.879 2.879 0 000 3.4l.851 1.5zm-.09-4.376l.09-.153.091.153a1.96 1.96 0 010 2.348l-.09.153-.092-.153a1.96 1.96 0 010-2.348zm2.615 4.548l-1.5.852 1.5.85a2.89 2.89 0 001.7.556 2.89 2.89 0 001.7-.555l1.501-.851-1.5-.851a2.881 2.881 0 00-3.4 0zm2.874.942a1.96 1.96 0 01-2.347 0l-.154-.09.154-.091a1.961 1.961 0 012.347 0l.154.09-.154.091zm-8.34 1.826l.85-1.5a2.879 2.879 0 000-3.4l-.85-1.5-.851 1.5a2.88 2.88 0 000 3.4l.85 1.5zm-.09-4.373l.09-.153.09.153c.52.702.52 1.645 0 2.348l-.09.152-.09-.152a1.961 1.961 0 010-2.348zm2.614 4.547l-1.5.851 1.5.851c.51.371 1.105.556 1.7.556s1.19-.185 1.7-.556l1.5-.85-1.5-.852a2.878 2.878 0 00-3.4 0zm2.874.942a1.96 1.96 0 01-2.347 0l-.153-.09.153-.09a1.958 1.958 0 012.348 0l.153.09-.153.09zm-8.34 1.827l.85-1.5a2.878 2.878 0 000-3.4l-.85-1.502-.851 1.5a2.878 2.878 0 000 3.4l.85 1.502zm-.092-4.374l.092-.154.09.154a1.96 1.96 0 010 2.346l-.09.154-.092-.154a1.96 1.96 0 010-2.346zm2.617 4.547l-1.5.851 1.5.851c.51.371 1.105.556 1.7.556s1.19-.185 1.7-.556l1.501-.85-1.5-.852a2.881 2.881 0 00-3.401 0zm2.873.942a1.958 1.958 0 01-2.347 0l-.153-.09.153-.091a1.961 1.961 0 012.348 0l.153.09-.153.09zm8.024-18.14a.461.461 0 00.327-.135L19.634.838a.462.462 0 10-.653-.654L16.366 2.8a.462.462 0 00.326.79zm1.635.519a.461.461 0 00.654 0L22.249.838a.462.462 0 10-.653-.654l-3.269 3.269a.462.462 0 000 .654zM24.21 2.8l-3.268 3.268a.461.461 0 10.654.654l3.268-3.27a.462.462 0 10-.653-.653zm-2.941.98a.461.461 0 00.654 0L24.864.838a.462.462 0 10-.653-.654l-2.942 2.942a.462.462 0 000 .654zm2.941 1.635l-2.614 2.614a.462.462 0 10.654.654l2.614-2.615a.461.461 0 10-.653-.653z"/></g></svg>