<svg width="25" height="25" fill="none" xmlns="http://www.w3.org/2000/svg"><g opacity=".5" clip-path="url(#clip0)" fill="#333"><path d="M4.304 21.975a9.274 9.274 0 003.191.551 10.636 10.636 0 003.488-.6c2.253-.784 4.123-2.242 5.267-4.106 1.16-1.89 1.436-3.969.78-5.856a1.055 1.055 0 00-.044-.105 1.363 1.363 0 001.15.201l6.2-3.008a1.172 1.172 0 00.54-1.58l-.091-.183a1.17 1.17 0 00-1.53-.545l-5.84 2.666a1.378 1.378 0 00-.93 1.787l-.116.077c-1.532-.767-5.25-.149-8.723 1.06-.204.07-.407.143-.61.219-.384-1.422.61-2.457.663-2.512l-.553-.552c-.379.41-.662.898-.83 1.43a3.253 3.253 0 00-.015 1.917c-.625.25-1.225.513-1.794.787-.315-1.17-.343-2.377-.3-3.25a1.323 1.323 0 10-2.645-.066v2.763a.211.211 0 01-.21.211.993.993 0 00-.993.998c.017.634.13 1.261.335 1.862-.598.64-.812 1.22-.635 1.726.656 1.887 2.164 3.346 4.245 4.108zm6.422-.787c-2.083.724-4.268.743-6.153.053-1.393-.51-2.496-1.362-3.204-2.458.409.08.825.118 1.24.112.24 0 .496-.01.767-.028 1.347-.092 2.968-.414 4.67-.919.033.006.965-.3 1.397-.45a30.225 30.225 0 002.898-1.174l.02-.01c1.022-.48 1.936-.992 2.688-1.507.673-.461 1.18-.898 1.52-1.31.294 3.12-2.088 6.385-5.843 7.69zm4.067-7.861c-.083.7-.22.844-.225.85l.007.007c-.323.22-.678.44-1.06.657a5.049 5.049 0 00.499-1.609.395.395 0 01.55-.307.392.392 0 01.229.402zm8.784-5.871a.39.39 0 01.509.182l.091.183a.39.39 0 01-.182.527l-4.855 2.365a1.364 1.364 0 00-.481-1.012l4.918-2.245zm-5.804 2.7a.585.585 0 01.358 1.049l-.214.105a.555.555 0 01-.214.013l.092-.06a.389.389 0 00.111-.544.39.39 0 00-.544-.107l-.174.116a.586.586 0 01.585-.572zM7.122 14.312l.6-.5a3.929 3.929 0 01-.38-.54c.185-.068.373-.136.56-.2 2.137-.744 4.22-1.215 5.864-1.328.765-.053 1.41-.022 1.865.088.37.09.605.228.66.389.057.16-.042.415-.276.715a4.154 4.154 0 01-.446.473 1.174 1.174 0 00-2.33-.282c-.198 1.46-1.062 2.312-1.303 2.524a31.036 31.036 0 01-3.938 1.496c-1.543-.297-2.634-1.23-3.245-2.775a27.357 27.357 0 011.85-.816c.148.269.321.522.519.757zm-5.92-.187a.209.209 0 01.15-.063.994.994 0 00.992-.992v-2.763a.542.542 0 111.083.028c-.056 1.135.002 2.805.596 4.314.342.869.826 1.584 1.438 2.125.348.308.74.562 1.164.754-.894.23-1.802.4-2.719.506l-.326-.06c-.873-.146-1.535-.697-1.97-1.638-.29-.65-.45-1.35-.47-2.062a.209.209 0 01.061-.15zM.796 17.61c-.055-.156.035-.393.243-.67.23.438.546.826.927 1.141a3.777 3.777 0 01-.51-.083c-.37-.09-.604-.227-.66-.388zm2.72-12.532a1.172 1.172 0 100 2.344 1.172 1.172 0 000-2.344zm0 1.563a.39.39 0 110-.782.39.39 0 010 .782zm3.906-3.125a1.172 1.172 0 10-2.344 0 1.172 1.172 0 002.344 0zm-1.563 0a.39.39 0 11.781 0 .39.39 0 01-.78 0z"/><path d="M5.078 7.813h.781v.78h-.78v-.78zm-.39 3.515h.78v.781h-.78v-.78zm2.343 3.516h.782v.781H7.03v-.781zM.781 7.422h.781v.781h-.78v-.781zM4.08 17.903l.434-.65c-.955-.636-.997-1.223-.998-1.247v.01h-.782c0 .101.038 1.015 1.346 1.887zM7.934 6.04c.161-.245.344-.474.546-.686l-.553-.552c-.053.052-1.286 1.301-1.286 2.62h.78c0-.398.178-.877.513-1.383z"/></g><defs><clipPath id="clip0"><path fill="#fff" d="M0 0h25v25H0z"/></clipPath></defs></svg>