<svg width="25" height="25" fill="none" xmlns="http://www.w3.org/2000/svg"><g opacity=".5" clip-path="url(#clip0)" fill="#333"><path d="M24.675 11.194l-2.189-5.902a1.955 1.955 0 00-1.822-1.274h-2.563A4.022 4.022 0 0014.084 0a4.022 4.022 0 00-4.018 4.018V6.25A3.129 3.129 0 016.94 9.375a3.114 3.114 0 01-2.212-.92 2.026 2.026 0 001.765-2.003v-3.53c0-1.118-.91-2.03-2.03-2.03h-2.19c-1.119 0-2.03.912-2.03 2.03v3.53c0 1.12.911 2.03 2.03 2.03h1.328A4.016 4.016 0 0010.96 6.25V4.018A3.129 3.129 0 0114.084.893a3.129 3.129 0 013.125 3.125h-3.01c-.807 0-1.539.512-1.821 1.274l-2.189 5.902c-.082.22-.123.452-.123.688v11.156c0 1.082.872 1.962 1.945 1.962h10.842c1.072 0 1.945-.88 1.945-1.962V11.882c0-.236-.042-.467-.123-.688zM2.275 7.59a1.14 1.14 0 01-1.138-1.137v-3.53c0-.626.51-1.136 1.137-1.136h2.19c.627 0 1.138.51 1.138 1.137v3.53c0 .626-.51 1.136-1.137 1.136h-.343a3.099 3.099 0 01-.306-1.339h-.893c0 .47.085.92.234 1.34h-.883zM18.1 7.267a.89.89 0 01-.446 1.662.89.89 0 01-.446-1.662v.769h.892v-.769zm4.752 16.84H12.01c-.58 0-1.051-.48-1.051-1.069v-2.317l.577.577.631-.631-1.208-1.209v-3.202l.577.578.631-.632-1.208-1.208v-3.112c0-.13.022-.256.067-.377l2.188-5.903a1.06 1.06 0 01.985-.692h3.01v1.403c-.768.2-1.34.892-1.34 1.722 0 .985.801 1.786 1.786 1.786s1.786-.801 1.786-1.786c0-.83-.572-1.522-1.34-1.722V4.91h2.563c.436 0 .831.278.985.692l2.188 5.903c.045.12.067.247.067.376v3.559l-.446-.447-1.208 1.209.63.631.578-.577.447.446v3.202l-.447-.447-1.208 1.209.63.631.578-.577.447.446v1.871a1.06 1.06 0 01-1.052 1.07z"/><path d="M11.536 22.899l.631.631.577-.577.578.577.63-.631-1.208-1.209-1.208 1.209zm3.124 0l.632.631.577-.577.578.577.63-.631-1.208-1.209-1.208 1.209zm3.126 0l.631.631.577-.577.578.577.63-.631-1.208-1.209-1.208 1.209zm3.124 0l.632.631.577-.577.577.577.631-.631-1.208-1.209-1.209 1.21zm-8.166-4.41l.578.577.63-.631-1.208-1.209-1.208 1.209.631.63.577-.576zm2.548.577l.577-.577.578.577.63-.631-1.208-1.209-1.208 1.209.631.63zm3.125 0l.577-.577.578.577.63-.631-1.208-1.209-1.208 1.209.631.63zm3.125 0l.577-.577.577.577.631-.631-1.208-1.209-1.209 1.209.632.63zm-6.25 1.6l-1.208-1.208-1.209 1.209.631.63.578-.576.577.577.631-.631zm3.125 0l-1.209-1.208L16 20.667l.631.63.578-.576.577.577.631-.631zm3.125 0l-1.209-1.208-1.208 1.209.631.63.578-.576.577.577.631-.631zm-7.458-4.41l.577.577.631-.63-1.208-1.21-1.209 1.21.631.63.578-.577zm3.125 0l.577.577.631-.63-1.209-1.21L16 16.204l.631.63.578-.577zm3.125 0l.577.577.631-.63-1.209-1.21-1.208 1.21.631.63.578-.577z"/></g><defs><clipPath id="clip0"><path fill="#fff" d="M0 0h25v25H0z"/></clipPath></defs></svg>