<svg width="25" height="25" fill="none" xmlns="http://www.w3.org/2000/svg"><g opacity=".5" clip-path="url(#clip0)" fill="#333"><path d="M19.908 8.047a.423.423 0 00-.033-.142c-.005-.014-.004-.029-.01-.042v-.001l-2.922-5.844V.424a.423.423 0 00-.511-.415L8.38 1.704a.423.423 0 00-.337.415V3.68l-2.89 4.128c-.002.004-.002.01-.004.013a.423.423 0 00-.063.156L5.084 8c-.002.017-.006.033-.006.05v13.983c0 .17.101.323.257.39l5.932 2.542c.005.002.01.001.014.003.05.019.1.031.153.031a.426.426 0 00.108-.014l8.05-2.118a.424.424 0 00.317-.41V8.05l-.001-.004zm-5.932-5.826v-.829l.848-.179v.83l-.848.178zm-.847.178l-.847.179v-.83l.847-.178v.83zm-1.695.357l-.848.178V2.12l-.002-.013.85-.179v.829zM9.078 4.118l4.119-.867 3.09-.65 2.586 5.173-2.62.69-4.585 1.206L9.51 5.043l-.431-.925zm9.983 5.007l-7.203 6.066v-4.695L19.06 8.6v.525zM5.926 8.652l5.084 1.816v4.992l-5.084-2.18V8.652zm0 5.55l5.084 2.18v5.433l-5.084-2.18v-5.433zm5.932 2.097l7.203-6.066v5.664l-7.203 5.686V16.3zm4.237-14.524l-.424.089v-.829l.424-.089v.829zm-7.203.687l.847-.178v.829l-.847.178v-.829zm-.498 2.196l1.114 2.385L10.62 9.43 6.167 7.84l2.226-3.181zm-2.468 15.9l5.084 2.179v1.197l-5.084-2.18v-1.196zm5.932 3.469v-1.364l7.203-5.687v5.156l-7.203 1.895z"/><path d="M13.595 7.568a1.28 1.28 0 001 .474c.13 0 .272-.018.427-.058.726-.19.967-.682 1.041-1.061.082-.421-.011-.863-.089-1.16-.399-1.524-1.263-1.64-1.917-1.47-.654.172-1.35.696-.952 2.221.077.296.212.728.49 1.054zm.676-2.454a.839.839 0 01.213-.033c.242 0 .479.166.67.897.057.216.126.532.077.782-.03.16-.104.32-.423.404-.32.084-.461-.02-.567-.144-.165-.195-.26-.504-.316-.72-.248-.945.035-1.104.346-1.186z"/></g><defs><clipPath id="clip0"><path fill="#fff" d="M0 0h25v25H0z"/></clipPath></defs></svg>