<svg width="25" height="25" fill="none" xmlns="http://www.w3.org/2000/svg"><g opacity=".5" clip-path="url(#clip0)" fill="#333"><path d="M7.715 2.81a.438.438 0 00-.62 0L2.271 7.636a.438.438 0 10.62.62l4.824-4.824a.438.438 0 000-.62zm2.851 1.536a.438.438 0 00-.62 0l-6.579 6.579a.438.438 0 10.62.62l6.58-6.579a.438.438 0 000-.62zm7.237 15.131a.438.438 0 00-.62 0l-2.632 2.631a.438.438 0 10.62.62l2.632-2.631a.438.438 0 000-.62zm0-4.386a.438.438 0 00-.62 0l-6.58 6.579a.438.438 0 10.621.62l6.579-6.579a.438.438 0 000-.62zm-12.5-.476L16.268 3.65a.438.438 0 10-.62-.62L4.683 13.995a.438.438 0 10.62.62zm14.254-10.05a.438.438 0 00-.62 0L4.902 18.6a.438.438 0 10.62.62L19.557 5.185a.438.438 0 000-.62zm1.316 3.07a.438.438 0 00-.62 0L6.218 21.67a.438.438 0 10.62.62L20.873 8.255a.439.439 0 000-.62z"/><path d="M24.905 6.85a7.015 7.015 0 00-5.96-5.848A7.227 7.227 0 0017.01.99a7.103 7.103 0 00-2.657.156c-1.804.458-3.71.458-5.513 0a7.134 7.134 0 00-2.785-.144A7.022 7.022 0 00.107 6.776c-.39 2.278.295 4.527 1.88 6.17.918.953 1.424 2.164 1.424 3.408v4.997a2.817 2.817 0 002.814 2.814h12.353a2.817 2.817 0 002.814-2.814v-4.802c0-1.281.541-2.526 1.523-3.504 1.636-1.631 2.361-3.889 1.99-6.195zM4.289 21.35v-4.996c0-1.472-.594-2.9-1.671-4.017C1.229 10.897.629 8.924.972 6.924A6.146 6.146 0 016.181 1.87a6.32 6.32 0 012.443.124c1.944.495 4 .496 5.945 0a6.255 6.255 0 012.389-.129h.002l.054.005a6.141 6.141 0 015.22 5.119c.326 2.024-.31 4.004-1.744 5.434a6.44 6.44 0 00-.763.914 5.666 5.666 0 00-1.018 3.21v4.803a1.938 1.938 0 01-1.936 1.936H6.225a1.939 1.939 0 01-1.936-1.936zm18.007-8.927c-1.149 1.145-1.78 2.61-1.78 4.125v4.803a1.94 1.94 0 01-1.688 1.92c.022-.023.04-.049.062-.072l.078-.09a3.2 3.2 0 00.087-.118c.023-.032.047-.064.068-.097.027-.041.052-.084.077-.127l.059-.101c.023-.045.044-.092.066-.138.016-.035.033-.069.048-.104.02-.048.037-.098.054-.147.013-.036.026-.07.037-.107.016-.053.029-.106.042-.16.008-.035.018-.069.025-.105.012-.06.02-.123.029-.185.004-.03.01-.058.012-.088a2.82 2.82 0 00.015-.282v-4.8c0-.801.211-1.588.609-2.304.239-.43.545-.834.913-1.201 1.636-1.63 2.361-3.889 1.99-6.195a7.177 7.177 0 00-.136-.64c-.017-.065-.037-.128-.056-.193a7.008 7.008 0 00-.393-1.048c-.028-.06-.054-.12-.083-.178a7.086 7.086 0 00-.287-.516l-.02-.035a6.984 6.984 0 00-.36-.52c-.035-.046-.072-.089-.107-.133a6.753 6.753 0 00-.762-.814c-.045-.042-.09-.084-.137-.124a6.986 6.986 0 00-.449-.358c-.012-.009-.023-.02-.035-.028a6.129 6.129 0 013.764 4.727c.327 2.024-.309 4.005-1.742 5.434z"/></g><defs><clipPath id="clip0"><path fill="#fff" d="M0 0h25v25H0z"/></clipPath></defs></svg>