<svg width="25" height="25" fill="none" xmlns="http://www.w3.org/2000/svg"><g opacity=".5" clip-path="url(#clip0)" fill="#333"><path d="M23.633 7.01l-1.884-1.37a2.547 2.547 0 01-1.046-2.054V.391a.39.39 0 00-.39-.391H17.58a.39.39 0 00-.39.39v3.12a2.534 2.534 0 01-1.132 2.113L13.98 7.008a3.314 3.314 0 00-1.48 2.763v12.104c0 .89.69 1.703 1.942 2.288 1.157.54 2.687.837 4.308.837s3.151-.297 4.308-.837C24.311 23.578 25 22.766 25 21.875V9.695a3.329 3.329 0 00-1.367-2.685zm-3.695-3.104h-1.991a3.74 3.74 0 00.024-.396V2.344h1.95v1.242c0 .108.006.214.017.32zM19.922.781v.781H17.97v-.78h1.952zm2.806 22.674c-1.056.492-2.469.764-3.978.764-1.51 0-2.922-.272-3.978-.765-.947-.442-1.49-1.018-1.49-1.579v-3.142c.347.303.738.553 1.16.742 1.157.54 2.687.837 4.308.837s3.151-.297 4.308-.837a4.694 4.694 0 001.16-.742v3.142c0 .561-.543 1.137-1.49 1.58zm0-4.688c-1.056.493-2.469.764-3.978.764-1.51 0-2.922-.271-3.978-.764-.947-.442-1.49-1.018-1.49-1.58v-4.313c.347.303.738.553 1.16.742 1.157.54 2.687.837 4.308.837s3.151-.297 4.308-.837a4.691 4.691 0 001.16-.742v4.313c0 .562-.543 1.138-1.49 1.58zm1.49-7.439c0 .562-.543 1.138-1.49 1.58-1.056.492-2.469.764-3.978.764-1.51 0-2.922-.272-3.978-.764-.947-.442-1.49-1.018-1.49-1.58V9.771a2.534 2.534 0 011.13-2.113l2.08-1.385a3.315 3.315 0 001.263-1.585h2.356A3.328 3.328 0 0021.29 6.27l1.884 1.37a2.546 2.546 0 011.046 2.054v1.633z"/><path d="M18.945 14.844a2.149 2.149 0 100 4.298 2.149 2.149 0 000-4.298zm0 3.515a1.368 1.368 0 110-2.735 1.368 1.368 0 010 2.735zm-7.247-3.124c-.782.042-1.56.15-2.323.325v-.716a.39.39 0 00-.006-.07c-.183-1.007-.658-1.866-1.373-2.485-.727-.628-1.647-.96-2.662-.96H.39a.39.39 0 00-.39.39v2.344a4.303 4.303 0 003.77 4.264 13.894 13.894 0 00-3.736 4.952.39.39 0 00.357.55h3.163c.118 0 .235-.006.352-.015v.014h3.017a5.192 5.192 0 005.186-5.186v-3.017a.391.391 0 00-.41-.39zm-2.27 2.067L4.15 21.875H2.827c.2-.74.779-2.33 2.224-3.516h.027v-.021c.19-.155.39-.298.598-.429l.004-.002.13-.079c1.235-.734 2.473-.913 3.617-.526zM5.333 12.11c1.663 0 2.94 1.087 3.26 2.77v.746h-.196l-1.64-2.188a2.356 2.356 0 00-1.875-.937H1.629l-.355-.39h4.06zm2.088 3.516H6.025a3.523 3.523 0 01-2.601-1.15L2.339 13.28h2.544a1.568 1.568 0 011.25.625l1.289 1.719zm-3.125 1.953A3.52 3.52 0 01.78 14.063v-1.334L2.845 15a4.306 4.306 0 003.18 1.407h.816a13.319 13.319 0 00-1.56.829l-.019.011v.001l-.008.005c-.171.106-.337.215-.498.326h-.46zm2.626 5.469h-.717c.11-.07.216-.146.32-.225l3.663-2.8a4.92 4.92 0 001.137-1.236 4.41 4.41 0 01-4.403 4.26zm4.405-6.912A4.135 4.135 0 019.714 19.4l-3.663 2.802a4.134 4.134 0 01-2.497.845H1.008c.361-.714.786-1.393 1.27-2.03-.226.603-.317 1.067-.324 1.23a.39.39 0 00.39.41h1.953a.39.39 0 00.256-.096l5.86-5.078a.391.391 0 00-.099-.653l-.042-.02a4.623 4.623 0 00-1.127-.39 12.986 12.986 0 012.183-.377v.092zm3.517-1.683h-.781v2.344h.78v-2.344z"/></g><defs><clipPath id="clip0"><path fill="#fff" d="M0 0h25v25H0z"/></clipPath></defs></svg>