<svg width="25" height="25" fill="none" xmlns="http://www.w3.org/2000/svg"><g opacity=".5" clip-path="url(#clip0)" fill="#333"><path d="M12.06 9.622a3.808 3.808 0 01-.978-.22l-.29.726c.382.143.781.234 1.187.271.1.008.196.012.29.012.774 0 1.368-.28 1.728-.82l-.65-.433c-.237.356-.67.512-1.287.464zm.44-.638h.678v-.78h-.287V7.03h-.782v1.563a.39.39 0 00.391.39zm-1.057-2.067l.552-.553-.39-.39a.39.39 0 00-.277-.115h-1.172v.782h1.01l.277.276zm1.953-.943l-.391.39.552.553.277-.276h1.01v-.782h-1.172a.39.39 0 00-.277.115zm-2.835 1.055l-.003.78.769.004.002-.782-.768-.002zm3.125 0l-.003.78.769.003.002-.78-.768-.003zM10.547 18.75h-.781v.781h.78v-.781zm0 1.953h-.781v.781h.78v-.78z"/><path d="M22.542 13.005a.391.391 0 00-.548-.004l-2.703 2.624h-2.885v-1.563a.39.39 0 00-.39-.39h-.781V11.49l.666-.667a.39.39 0 00.115-.276V8.874l.921-.311a.39.39 0 00.266-.373l-.015-1.943a.39.39 0 00-.514-.368l-.658.22V.78a.39.39 0 00-.296-.379l-1.563-.39A.388.388 0 0014.063 0h-2.344a.391.391 0 00-.064.005L9.31.395a.39.39 0 00-.327.386v5.313l-.642-.215a.39.39 0 00-.514.368L7.813 8.19a.39.39 0 00.265.373l.906.306v1.678c0 .091.033.18.091.25l.69.829v2.046h-1.17a.39.39 0 00-.39.39v1.563H5.36L4 11.545a2.736 2.736 0 10-.736.264l1.272 3.816h-.239a.39.39 0 00-.35.216l-1.953 3.906a.39.39 0 00-.04.175V25h.78v-4.986l1.804-3.608h.259l.959 2.878-.801.267a.39.39 0 00-.267.37v1.954H3.516v.781H11.3V25h.782v-2.736l2.144-2.144a.712.712 0 011.007 0l1.154 1.154a.39.39 0 010 .552l-.276.276-1.382-1.38-.552.552 1.381 1.38-.276.277-1.381-1.381-.553.552 1.381 1.381-.276.277a.391.391 0 01-.552 0l-.599-.599-.552.553.598.598a1.173 1.173 0 001.658 0l.093-.093h4.432a.39.39 0 00.391-.39v-1.173h-.781v.782h-3.26l1.058-1.06a1.172 1.172 0 000-1.656l.278-.277 1.68 1.344a.39.39 0 00.53-.038L21.9 19.1l.366.549V25h.781v-5.469a.391.391 0 00-.066-.216l-.533-.801 2.447-2.622a.39.39 0 00-.01-.543l-2.343-2.344zM.732 9.106a1.978 1.978 0 113.956 0 1.978 1.978 0 01-3.955 0zm14.503 1.28l-1.222 1.22-.906-.603a.39.39 0 00-.216-.066h-1.172a.39.39 0 00-.217.066l-.796.53-.159-.19v-.015h-.012l-.77-.923V8.7a.39.39 0 00.016-.106V6.64a.389.389 0 00-.015-.106V5.47h5.469v4.916zM13.45 12.17l-.33.33h-1.61l-.302-.363.628-.418h.935l.678.451zm2.96-5.38l.01 1.123-.404.137V6.922l.395-.131zM11.752.782h2.264l1.22.305v3.601h-.782V2.345h-.781v2.344h-.781V1.563h-.781v3.125h-.782V2.344h-.781v2.344h-.781V1.111l1.985-.33zM8.596 7.913l.01-1.122.378.126v1.127l-.388-.13zm2.432 5.228a.39.39 0 00.3.14h1.953a.388.388 0 00.277-.114l.895-.896v1.582L12.5 15.155l-1.953-1.302v-1.29l.481.578zM5.62 16.406h4.146v-.781h-.782v-1.172h1.054l1.779 1.186-3.844 2.795a.39.39 0 00-.16.316v.32l-.025-.067a.39.39 0 00-.49-.233l-.8.267-.878-2.63zm-.151 5.469v-1.672l1.72-.573.841 2.245H5.47zm9.26-2.745a1.485 1.485 0 00-1.055.438s-2.288 2.29-2.3 2.307h-2.51l-.263-.704-.007-.077v-2.145l4.13-3.004 2.238-1.492h.663v1.563a.39.39 0 00.39.39h2.472l-3.011 2.924a1.484 1.484 0 00-.747-.2zm2.182.516l-.524.524-.322-.323 6.197-6.017.633.633-5.09 5.453-.373-.3a.391.391 0 00-.52.03zm2.191 1.307l-.685-.548 5.03-5.39.62.62-4.965 5.318z"/></g><defs><clipPath id="clip0"><path fill="#fff" d="M0 0h25v25H0z"/></clipPath></defs></svg>