<svg width="25" height="25" fill="none" xmlns="http://www.w3.org/2000/svg"><g opacity=".5" fill="#333"><path d="M23.284 7.686a2.832 2.832 0 00-1.335-1.724 2.83 2.83 0 00-2.163-.28l-.073.02-2.75 1.9c.275-.37.503-.915.503-1.93C17.466.984 15.02 0 12.966 0 8.75 0 8.263 3.254 8.263 5.702c0 1.005.405 1.648.68 2.03L5.429 5.5l-.12-.053A2.855 2.855 0 001.81 7.451a2.854 2.854 0 001.973 3.49l2.578 1.115c.879.547 2.214 1.753 1.563 3.804l-2.047 3.57a2.86 2.86 0 00-1.952 3.248C4.173 24.024 5.386 25 6.81 25h.795c.03 0 .061-.002.092-.004l.056-.003a2.93 2.93 0 00.56-.085l.082-.022a2.813 2.813 0 00.521-.21 2.94 2.94 0 00.868-.696c.087-.103.168-.216.236-.327l2.478-3.51a.464.464 0 01.739 0l2.424 3.431a.33.33 0 00.044.062 2.402 2.402 0 00.363.472 2.795 2.795 0 00.872.626c.133.062.268.113.399.15l.108.029a2.806 2.806 0 00.536.08l.056.003c.031.002.061.004.092.004h.796c1.423 0 2.636-.976 2.883-2.321a2.86 2.86 0 00-1.951-3.248l-2.046-3.571c-.642-2.023.658-3.226 1.514-3.772l1.989-.914a2.83 2.83 0 001.688-1.325c.38-.663.48-1.431.28-2.163zM2.851 9.178a1.962 1.962 0 01.73-2.69 1.952 1.952 0 011.436-.21l.069.045L3.639 9.94a1.972 1.972 0 01-.788-.762zm4.233 9.912l3.759 1.879-.346.49-3.708-1.853.295-.517zm2.248 4.02l-.048.067a2.003 2.003 0 01-.252.328c-.06.064-.124.123-.195.18a1.973 1.973 0 01-.688.358l-.073.02a1.84 1.84 0 01-.297.05l-.97.01c-.984 0-1.853-.69-2.02-1.603a1.977 1.977 0 011.369-2.248l3.827 1.913-.653.925zm5.754-1.868l3.574-2.144.31.545-3.521 2.113-.363-.514zm5.862 1.278c-.168.914-1.037 1.603-2.021 1.603l-.828-.002-.143-.008c-.101-.01-.2-.027-.321-.057l-.05-.013a2.034 2.034 0 01-.689-.36 1.977 1.977 0 01-.192-.178c-.027-.029-.055-.057-.08-.088a2.006 2.006 0 01-.173-.241.857.857 0 00-.053-.075l-.442-.626 3.654-2.192a1.976 1.976 0 011.338 2.237zm-2.014-11.216l-.05.027c-.868.547-2.788 2.112-1.892 4.844l1.233 2.16-3.646 2.188-.626-.886a1.33 1.33 0 00-2.172 0l-.428.607-3.833-1.917 1.187-2.07.036-.082c.91-2.77-1.062-4.337-1.951-4.882l-2.343-1.018L5.84 6.8l2.975 1.887.06.032a.82.82 0 00.843-.116.813.813 0 00.282-.8c-.036-.171-.137-.308-.266-.481-.236-.318-.593-.797-.593-1.622 0-2.385.454-4.824 3.826-4.824 2.438 0 3.623 1.568 3.623 4.795 0 1.105-.306 1.408-.53 1.63-.127.127-.272.27-.32.5a.817.817 0 001.138.917l2.343-1.613 1.656 3.311-1.942.886zm3.309-1.891a1.963 1.963 0 01-.575.627L19.95 6.603l.135-.092c.484-.113.989-.04 1.428.212a1.96 1.96 0 01.73 2.69z"/><path d="M12.868 14.474c-.846 0-1.535.688-1.535 1.535 0 .846.689 1.535 1.535 1.535.847 0 1.535-.689 1.535-1.535 0-.847-.689-1.535-1.535-1.535zm0 2.193a.659.659 0 11.002-1.317.659.659 0 01-.002 1.317zm0-6.141c-.846 0-1.535.689-1.535 1.535 0 .847.689 1.536 1.535 1.536.847 0 1.535-.69 1.535-1.536 0-.846-.689-1.535-1.535-1.535zm0 2.193a.659.659 0 11.002-1.317.659.659 0 01-.002 1.317zm2.412-9.21a.877.877 0 11-1.754 0 .877.877 0 011.755 0zm-3.07 0a.877.877 0 11-1.754 0 .877.877 0 011.754 0zm2.632 1.754a.438.438 0 00-.439.439c0 .525-.76 1.041-1.53 1.041-.791-.008-1.54-.514-1.54-1.041a.438.438 0 10-.877 0c0 1.133 1.245 1.907 2.412 1.919 1.141 0 2.412-.789 2.412-1.92a.438.438 0 00-.438-.438z"/></g></svg>