<svg width="25" height="25" fill="none" xmlns="http://www.w3.org/2000/svg"><g opacity=".5" clip-path="url(#clip0)" fill="#333"><path d="M14.453 13.74a.489.489 0 100 .976.489.489 0 000-.977z"/><path d="M18.81 16.368c-.458-.457-1.568-1.695-2.444-3.703a4.169 4.169 0 00-3.859-2.572 4.168 4.168 0 00-3.858 2.572c-1.099 2.52-2.6 3.854-2.614 3.866l-.005.005a4.187 4.187 0 00-1.393 3.115c0 1.451.691 2.713 1.89 3.513a4.633 4.633 0 003.798.613 8.367 8.367 0 012.175-.272c.786 0 1.55.097 2.207.281a4.6 4.6 0 003.78-.594c1.213-.802 1.916-2.076 1.916-3.541 0-1.29-.58-2.484-1.593-3.283zm-.86 6.009a3.627 3.627 0 01-2.98.469 9.318 9.318 0 00-2.47-.318c-.86 0-1.7.106-2.433.307a3.657 3.657 0 01-2.998-.483c-.92-.614-1.456-1.575-1.456-2.701a3.21 3.21 0 011.066-2.386c.104-.091 1.689-1.51 2.867-4.213 0-.003.002-.005.003-.008a3.195 3.195 0 012.958-1.975c1.3 0 2.46.775 2.959 1.974l.003.008c.957 2.195 2.188 3.55 2.673 4.03a.491.491 0 00.044.04 3.185 3.185 0 011.24 2.53c0 1.136-.543 2.109-1.477 2.726z"/><path d="M15.783 15.683a.488.488 0 00-.818.533 14.02 14.02 0 001.801 2.252.488.488 0 10.688-.693 12.947 12.947 0 01-1.67-2.092zm-4.865-7.971c.469-.82.664-1.909.536-2.988-.248-2.1-1.696-3.86-3.314-3.665-.731.086-1.38.566-1.83 1.35-.47.82-.665 1.91-.537 2.989.405 3.43 3.598 5.016 5.145 2.314zm-3.76-4.817c.267-.467.684-.873 1.221-.873.961 0 1.925 1.29 2.106 2.817.104.876-.048 1.746-.415 2.388-1.125 1.966-3.061.309-3.327-1.944-.104-.876.047-1.747.414-2.388zM6.24 12.964c.142-.87-.03-1.832-.483-2.71-.454-.878-1.14-1.575-1.931-1.963-.84-.412-1.702-.434-2.424-.06C.679 8.604.198 9.32.048 10.243c-.141.87.03 1.833.484 2.71.453.878 1.139 1.575 1.93 1.963.786.385 1.657.457 2.425.06.723-.373 1.203-1.088 1.353-2.012zm-1.8 1.146c-.441.228-.99.203-1.546-.07-.605-.296-1.136-.841-1.493-1.534-.358-.693-.496-1.44-.388-2.105.1-.612.397-1.074.838-1.301.488-.253 1.052-.173 1.546.069.605.297 1.135.842 1.493 1.534.358.693.496 1.44.388 2.106-.1.61-.397 1.073-.838 1.3zm11.722-5.023c1.48 0 2.831-1.616 3.076-3.68.26-2.198-.847-4.352-2.606-4.352-1.48 0-2.832 1.616-3.076 3.679-.26 2.202.85 4.353 2.606 4.353zm-1.636-4.238c.18-1.528 1.145-2.818 2.106-2.818.045 0 .084.002.119.007.52.058.923.513 1.16.977.324.632.454 1.462.357 2.277-.187 1.583-1.236 2.94-2.225 2.811h-.005c-.444-.053-.866-.409-1.156-.977-.323-.632-.452-1.462-.356-2.277zm10.426 5.396c-.309-1.902-2.028-2.81-3.778-1.952-1.637.803-2.707 2.872-2.414 4.673.312 1.924 2.048 2.8 3.777 1.952 1.638-.803 2.707-2.872 2.415-4.673zm-2.845 3.796c-.556.273-1.105.297-1.546.07-.44-.228-.738-.69-.837-1.301-.224-1.375.627-3.025 1.88-3.64 1.15-.564 2.179-.033 2.384 1.232.223 1.372-.625 3.023-1.88 3.64z"/></g><defs><clipPath id="clip0"><path fill="#fff" d="M0 0h25v25H0z"/></clipPath></defs></svg>