<svg width="14" height="14" fill="none" xmlns="http://www.w3.org/2000/svg"><g fill="#A6D914"><path d="M7 3.73c-.987 0-1.79.767-1.79 1.709 0 .941.803 1.708 1.79 1.708s1.79-.767 1.79-1.708c0-.942-.803-1.708-1.79-1.708z"/><path d="M11.187 1.655A6.027 6.027 0 007 0a6.027 6.027 0 00-4.187 1.655C1.695 2.723 1.08 4.142 1.08 5.652c0 3.054 3.025 5.594 4.65 6.96.226.189.421.353.577.491.194.174.444.26.694.26.25 0 .5-.086.694-.26.156-.138.35-.302.577-.492 1.625-1.365 4.65-3.905 4.65-6.959 0-1.51-.616-2.929-1.734-3.997zM7 7.93c-1.439 0-2.61-1.117-2.61-2.49 0-1.374 1.171-2.491 2.61-2.491 1.439 0 2.61 1.117 2.61 2.49C9.61 6.813 8.438 7.93 7 7.93z"/></g></svg>