<svg width="211" height="143" fill="none" xmlns="http://www.w3.org/2000/svg"><g clip-path="url(#clip0)" filter="url(#filter0_d)"><path d="M141.013 135C177.477 135 207 105.568 207 69.322h-65.987V135z" fill="#A1D214"/><path d="M40.654 49.117v28.77c0 2.886-2.14 5.015-4.992 5.015s-4.991-2.13-4.991-5.016V53.044H23.3c-.19 15.284-2.71 23.375-8.7 27.729-1.996 1.467-3.85 2.129-6.037 2.129-2.662 0-4.516-1.75-4.516-4.353 0-2.13 1.14-3.691 3.137-4.4 4.992-1.8 6.656-7.335 6.656-22.099v-3.028c0-2.887 2.14-5.016 5.04-5.016h16.734c2.9.095 5.04 2.224 5.04 5.11zM86.626 78.17c0 2.698-2.092 4.732-4.944 4.732-2.14 0-3.756-1.23-4.707-3.596l-.808-2.035H62.475l-.808 2.035c-.95 2.366-2.567 3.596-4.706 3.596-2.853 0-4.945-2.034-4.945-4.732 0-.71.19-1.561.523-2.413l12.028-29.054c.856-2.129 2.52-3.312 4.754-3.312 2.235 0 3.899 1.136 4.754 3.312l12.028 29.054c.38.852.523 1.75.523 2.413zm-21.203-8.8h7.797l-3.9-11.168-3.898 11.167zm67.27-20.963v29.48c0 2.886-2.139 5.015-4.991 5.015-2.853 0-4.992-2.13-4.992-5.016v-16.42l-15.403 19.307c-1.141 1.467-2.568 2.13-4.184 2.13-2.805 0-4.992-2.178-4.992-5.017v-29.48c0-2.886 2.14-5.015 4.992-5.015s4.992 2.13 4.992 5.016v16.798l14.5-18.69c1.283-1.61 2.424-3.171 5.182-3.171 2.805.047 4.896 2.224 4.896 5.063zm52.343.142v29.385c0 2.886-2.139 5.016-4.992 5.016-2.852 0-4.991-2.13-4.991-5.016V64.59l-4.992 7.902c-1.379 2.177-2.663 3.076-4.517 3.076-1.854 0-3.137-.852-4.516-3.076l-4.992-7.902v13.344c0 2.886-2.139 5.016-4.992 5.016-2.852 0-4.991-2.13-4.991-5.016V48.549c0-2.934 2.091-5.158 4.991-5.158 2.045 0 3.423.994 5.04 3.644l9.46 15.142 9.461-15.142c1.616-2.65 3.043-3.644 5.039-3.644 2.9 0 4.992 2.177 4.992 5.158zM92.14 0s-.617 28.107 25.245 36.199c.048 0 6.371-20.915-25.244-36.199z" fill="#787878"/><path d="M100.556 26.83c3.47 4.069 8.319 7.665 14.928 9.936-15.023 4.07-24.151-9.463-24.151-9.463 3.518-.568 6.56-.71 9.223-.474zM12.55 101.57c0-1.87-1.42-2.96-3.76-3.02v-.7H8.3v.7c-2.34.05-3.76 1.15-3.76 3.02 0 1.86 1.42 2.96 3.76 3.01v.71h.49v-.71c2.34-.05 3.76-1.15 3.76-3.01zm-3.76 2.59v-5.19c2.04.06 3.26.99 3.26 2.59 0 1.61-1.22 2.53-3.26 2.6zm-3.75-2.59c0-1.62 1.21-2.53 3.26-2.6v5.19c-2.03-.07-3.26-.98-3.26-2.59zm16.822-3.5h-2.51v7h.51v-2.29h2c1.76 0 2.82-.88 2.82-2.35 0-1.48-1.06-2.36-2.82-2.36zm0 4.25h-2v-3.79h2c1.5 0 2.3.69 2.3 1.9 0 1.2-.8 1.89-2.3 1.89zm9.963 2.29v-2.87h3.73v-.45h-3.73v-2.76h4.17v-.46h-4.68v7h4.83v-.46h-4.32zm18.923-6.54v6.54h-3.44v-6.54h-.51v6.54h-3.44v-6.54h-.51v7h8.41v-7h-.51zm22.716 7l-.01-7h-.42l-3.13 5.41-3.13-5.41h-.43v7h.5V99.1l2.93 5.04h.25l2.93-5.06.01 5.99h.5zm12.849 0h.55l-3.22-7h-.51l-3.22 7h.55l.89-1.97h4.06l.9 1.97zm-4.76-2.4l1.83-4.04 1.84 4.04h-3.67zm14.274-4.6h-2.51v7h.51v-2.29h2c1.76 0 2.82-.88 2.82-2.35 0-1.48-1.06-2.36-2.82-2.36zm0 4.25h-2v-3.79h2c1.5 0 2.3.69 2.3 1.9 0 1.2-.8 1.89-2.3 1.89zm14.313 2.75h.6l-2.86-3.59 2.68-3.41h-.57l-2.51 3.22h-1.69v-3.22h-.51v7h.51v-3.32h1.68l2.67 3.32zm7.359-.46v-2.87h3.73v-.45h-3.73v-2.76h4.17v-.46h-4.68v7h4.83v-.46h-4.32zm15.413-6.54h-5.55v.46h2.52v6.54h.51v-6.54h2.52v-.46z" fill="#787878"/></g><defs><clipPath id="clip0"><path fill="#fff" transform="translate(4)" d="M0 0h203v135H0z"/></clipPath><filter id="filter0_d" x="0" y="0" width="211" height="143" filterUnits="userSpaceOnUse" color-interpolation-filters="sRGB"><feFlood flood-opacity="0" result="BackgroundImageFix"/><feColorMatrix in="SourceAlpha" values="0 0 0 0 0 0 0 0 0 0 0 0 0 0 0 0 0 0 127 0"/><feOffset dy="4"/><feGaussianBlur stdDeviation="2"/><feColorMatrix values="0 0 0 0 0 0 0 0 0 0 0 0 0 0 0 0 0 0 0.25 0"/><feBlend in2="BackgroundImageFix" result="effect1_dropShadow"/><feBlend in="SourceGraphic" in2="effect1_dropShadow" result="shape"/></filter></defs></svg>