<svg width="107" height="71" fill="none" xmlns="http://www.w3.org/2000/svg"><path d="M72.219 71C91.439 71 107 55.52 107 36.458H72.219V71z" fill="#A1D214"/><path d="M19.32 25.832v15.13c0 1.518-1.128 2.638-2.631 2.638-1.504 0-2.631-1.12-2.631-2.638V27.898h-3.884c-.1 8.038-1.429 12.294-4.586 14.584-1.052.771-2.03 1.12-3.182 1.12-1.404 0-2.38-.921-2.38-2.29 0-1.12.6-1.941 1.653-2.315 2.631-.945 3.508-3.857 3.508-11.621v-1.593c0-1.518 1.128-2.638 2.656-2.638h8.82c1.53.05 2.657 1.17 2.657 2.688zm24.232 15.28c0 1.418-1.103 2.488-2.606 2.488-1.128 0-1.98-.647-2.481-1.89l-.426-1.071h-7.217l-.426 1.07c-.501 1.244-1.353 1.891-2.48 1.891-1.504 0-2.607-1.07-2.607-2.488 0-.373.1-.821.276-1.27l6.34-15.28c.45-1.12 1.328-1.741 2.506-1.741 1.177 0 2.054.597 2.505 1.742l6.34 15.28c.2.448.276.92.276 1.269zm-11.176-4.629h4.11L34.43 30.61l-2.055 5.873zm35.458-11.024v15.503c0 1.518-1.128 2.638-2.632 2.638-1.503 0-2.63-1.12-2.63-2.638v-8.635l-8.12 10.154c-.601.771-1.353 1.12-2.205 1.12-1.478 0-2.631-1.145-2.631-2.639V25.459c0-1.518 1.127-2.637 2.631-2.637 1.504 0 2.631 1.12 2.631 2.637v8.835l7.643-9.83c.677-.846 1.278-1.667 2.731-1.667 1.479.024 2.582 1.17 2.582 2.663zm27.589.074v15.454c0 1.518-1.128 2.638-2.631 2.638-1.504 0-2.631-1.12-2.631-2.638V33.97l-2.632 4.157c-.726 1.144-1.403 1.617-2.38 1.617-.977 0-1.654-.448-2.38-1.617l-2.632-4.157v7.018c0 1.518-1.127 2.638-2.63 2.638-1.504 0-2.632-1.12-2.632-2.638V25.533c0-1.543 1.103-2.712 2.631-2.712 1.078 0 1.804.522 2.656 1.916L85.15 32.7l4.987-7.963c.852-1.394 1.603-1.916 2.656-1.916 1.528 0 2.63 1.144 2.63 2.712zM46.459 0s-.326 14.782 13.306 19.038c.025 0 3.358-11-13.306-19.038z" fill="#000"/><path d="M50.894 14.11c1.83 2.14 4.385 4.032 7.868 5.227-7.918 2.14-12.73-4.978-12.73-4.978 1.855-.298 3.459-.373 4.862-.249zM6.242 54.445c0-1.365-1.037-2.16-2.745-2.205v-.51h-.358v.51c-1.708.037-2.745.84-2.745 2.205 0 1.358 1.037 2.16 2.745 2.197v.519h.358v-.519c1.708-.036 2.745-.84 2.745-2.197zm-2.745 1.89v-3.788c1.489.044 2.38.723 2.38 1.89 0 1.176-.891 1.848-2.38 1.899zm-2.738-1.89c0-1.183.884-1.847 2.38-1.898v3.789c-1.482-.051-2.38-.716-2.38-1.891zm12.28-2.555h-1.832V57h.372v-1.672h1.46c1.285 0 2.059-.642 2.059-1.715 0-1.08-.774-1.723-2.059-1.723zm0 3.102h-1.46v-2.766h1.46c1.095 0 1.68.504 1.68 1.387 0 .876-.585 1.38-1.68 1.38zm7.273 1.672V54.57h2.723v-.328h-2.723v-2.015h3.044v-.336H19.94V57h3.526v-.336h-3.154zm13.814-4.774v4.774h-2.511V51.89h-.372v4.774H28.73V51.89h-.372V57h6.14v-5.11h-.373zM50.709 57l-.008-5.11h-.306l-2.285 3.95-2.285-3.95h-.314V57h.365v-4.358l2.139 3.68h.182l2.14-3.695.007 4.373h.365zm9.38 0h.4l-2.35-5.11h-.372L55.417 57h.4l.65-1.438h2.964L60.088 57zm-3.476-1.752l1.336-2.95 1.343 2.95h-2.679zm10.42-3.358h-1.832V57h.372v-1.672h1.46c1.285 0 2.059-.642 2.059-1.715 0-1.08-.774-1.723-2.059-1.723zm0 3.102h-1.46v-2.766h1.46c1.095 0 1.68.504 1.68 1.387 0 .876-.585 1.38-1.68 1.38zM77.482 57h.438l-2.088-2.62 1.957-2.49h-.417l-1.832 2.35h-1.234v-2.35h-.372V57h.372v-2.424h1.227L77.482 57zm5.372-.336V54.57h2.723v-.328h-2.723v-2.015h3.044v-.336h-3.416V57h3.525v-.336h-3.153zm11.252-4.774h-4.052v.336h1.84V57h.372v-4.774h1.84v-.336z" fill="#000"/></svg>