<svg width="17" height="16" fill="none" xmlns="http://www.w3.org/2000/svg"><path d="M4.02 8.56c2.04 0 3.46-1.48 3.46-3.86S6.06.84 4.02.84.54 2.34.54 4.7s1.44 3.86 3.48 3.86zM2.8 15h2.38l9.56-14h-2.38L2.8 15zm1.22-8.08c-.86 0-1.46-.74-1.46-2.22 0-1.48.6-2.22 1.46-2.22.88 0 1.46.72 1.46 2.22 0 1.5-.58 2.22-1.46 2.22zm9.5 8.24c2.04 0 3.48-1.5 3.48-3.86s-1.44-3.86-3.48-3.86c-2.02 0-3.46 1.5-3.46 3.86s1.44 3.86 3.46 3.86zm0-1.64c-.86 0-1.46-.72-1.46-2.22 0-1.5.6-2.22 1.46-2.22.88 0 1.46.74 1.46 2.22 0 1.48-.58 2.22-1.46 2.22z" fill="#333"/></svg>