<svg width="14" height="15" fill="none" xmlns="http://www.w3.org/2000/svg"><g fill="#A6D914"><path d="M5.797 8.677C4.461 7.415 4.16 6.153 4.091 5.647a.438.438 0 01.138-.379l1.081-1.02a.437.437 0 00.068-.565L3.657 1.158A.499.499 0 003.03.992L.267 2.222a.449.449 0 00-.265.452c.145 1.3.744 4.494 4.068 7.633 3.324 3.14 6.706 3.706 8.082 3.843.2.02.391-.08.48-.25l1.302-2.611a.442.442 0 00-.175-.59l-2.674-1.626a.504.504 0 00-.597.064l-1.081 1.021a.497.497 0 01-.402.13c-.535-.064-1.872-.349-3.208-1.61z"/><path d="M11.103 7.997a.47.47 0 01-.482-.456C10.618 5.653 8.999 4.124 7 4.121a.47.47 0 01-.483-.455A.47.47 0 017 3.21c2.532.002 4.583 1.94 4.586 4.331a.47.47 0 01-.483.456z"/><path d="M13.517 7.997a.47.47 0 01-.482-.456C13.03 4.395 10.33 1.845 7 1.841a.47.47 0 01-.483-.455A.47.47 0 017 .93c3.864.004 6.996 2.962 7 6.611 0 .121-.05.237-.141.323a.497.497 0 01-.342.133z"/></g></svg>