<svg width="20" height="20" fill="none" xmlns="http://www.w3.org/2000/svg"><path d="M7.083 19.167a2.083 2.083 0 100-4.167 2.083 2.083 0 000 4.167zM19.917 3.5c-.084-.083-.167-.167-.334-.167H3.75l-.417-2.166C3.25 1 3.083.833 2.917.833h-2.5C.167.833 0 1 0 1.25c0 .25.167.417.417.417h2.166l2 10.166c.334 1.334 1.5 2.334 2.917 2.334h9.583c.25 0 .417-.167.417-.417 0-.25-.167-.417-.417-.417H7.5c-.667 0-1.333-.333-1.667-.916L18 10.75a.358.358 0 00.333-.333L20 3.75s0-.167-.083-.25zm-4.5 15.667a2.083 2.083 0 100-4.167 2.083 2.083 0 000 4.167z" fill="#93C10E"/></svg>