<svg width="12" height="12" fill="none" xmlns="http://www.w3.org/2000/svg"><g clip-path="url(#clip0)"><path d="M8.952 11.808l.395-.393a.652.652 0 00.192-.464.652.652 0 00-.192-.464L4.863 6.003l4.49-4.49a.651.651 0 00.191-.464.652.652 0 00-.192-.464L8.96.192a.657.657 0 00-.928 0L2.667 5.537a.671.671 0 00-.21.465v.002c0 .176.086.34.21.464l5.35 5.34a.663.663 0 00.935 0z" fill="#000"/></g><defs><clipPath id="clip0"><path fill="#fff" transform="rotate(90 6 6)" d="M0 0h12v12H0z"/></clipPath></defs></svg>