<svg width="16" height="20" fill="none" xmlns="http://www.w3.org/2000/svg"><path d="M7.606 9.781c-2.224 0-4.027-2.19-4.027-4.89C3.58 2.19 4.171 0 7.606 0c3.434 0 4.026 2.19 4.026 4.89 0 2.702-1.802 4.891-4.026 4.891zm7.604 7.468c.002-.165.003-.047 0 0zm-15.209.128c-.002-.045 0-.312 0 0zm.008-.326c.074-4.705.689-6.046 5.391-6.894 0 0 .662.843 2.205.843 1.543 0 2.205-.843 2.205-.843 4.651.839 5.303 2.16 5.389 6.741.007.375.01.394.011.35v.495S14.09 20 7.605 20 .001 17.743.001 17.743v-.365c0 .026.003-.026.008-.327z" fill="#C8C8C8"/></svg>